<svg width="645" height="446" viewBox="0 0 645 446" fill="none" xmlns="http://www.w3.org/2000/svg">
<g clip-path="url(#clip0)">
<path d="M174.649 406.65H17.2905C17.2905 406.65 14.1008 359.839 32.9732 359.307C51.8456 358.775 49.7192 380.053 73.3762 350.796C97.0331 321.54 125.741 323.136 129.462 340.423C133.183 357.711 122.285 371.542 142.221 367.286C162.156 363.031 190.864 374.201 174.649 406.65Z" fill="#096262"/>
<path d="M93.3143 406.66L92.7832 406.639C94.0218 375.819 100.473 356.017 105.666 344.833C111.305 332.689 116.739 327.772 116.793 327.724L117.146 328.122C117.093 328.169 111.722 333.037 106.129 345.099C100.964 356.236 94.5483 375.957 93.3143 406.66Z" fill="#F2F2F2"/>
<path d="M150.266 406.724L149.756 406.575C155.901 385.47 170.372 372.144 170.518 372.012L170.875 372.406C170.731 372.537 156.368 385.768 150.266 406.724Z" fill="#F2F2F2"/>
<path d="M42.0756 406.686L41.5489 406.613C43.6339 391.567 39.8678 379.894 36.3411 372.75C32.5226 365.016 28.1657 360.792 28.1221 360.75L28.4899 360.366C28.5342 360.408 32.9584 364.697 36.8177 372.515C40.3773 379.725 44.1791 391.506 42.0756 406.686Z" fill="#F2F2F2"/>
<path d="M196.006 407.361H0.318222L0.273078 406.698C0.160572 405.048 -2.33574 366.127 10.2677 352.24C13.0852 349.135 16.4791 347.506 20.355 347.397C28.5704 347.163 33.7332 350.242 37.8973 352.713C45.746 357.372 50.931 360.45 69.7831 337.136C90.2057 311.879 112.241 306.445 124.908 309.466C133.093 311.419 138.734 316.937 140.385 324.607C141.948 331.869 141.45 338.693 141.05 344.176C140.622 350.043 140.284 354.677 142.692 356.777C144.702 358.529 148.714 358.689 155.318 357.278C168.751 354.411 187.493 356.865 196.9 369.027C201.962 375.57 205.949 387.464 196.203 406.968L196.006 407.361ZM1.65371 405.938H195.126C202.388 391.195 202.615 378.74 195.776 369.898C187.146 358.741 169.04 355.804 155.615 358.67C148.44 360.202 144.165 359.949 141.757 357.85C138.813 355.283 139.174 350.336 139.631 344.073C140.025 338.68 140.515 331.969 138.994 324.907C137.463 317.794 132.209 312.671 124.578 310.851C112.315 307.923 90.8957 313.288 70.8887 338.031C51.264 362.301 45.3523 358.793 37.172 353.937C32.9565 351.436 28.1701 348.598 20.3954 348.819C16.9209 348.917 13.8679 350.39 11.3206 353.197C-0.0068009 365.677 1.37626 400.676 1.65371 405.938Z" fill="#CFCCE0"/>
<path d="M617.479 406.65H460.121C460.121 406.65 456.931 359.839 475.803 359.307C494.676 358.775 492.549 380.053 516.206 350.796C539.863 321.54 568.57 323.136 572.292 340.423C576.013 357.711 565.115 371.542 585.051 367.286C604.986 363.031 633.693 374.201 617.479 406.65Z" fill="#096262"/>
<path d="M536.143 406.66L535.612 406.639C536.851 375.819 543.302 356.017 548.495 344.833C554.134 332.689 559.568 327.772 559.622 327.724L559.975 328.122C559.922 328.169 554.551 333.037 548.958 345.099C543.793 356.236 537.377 375.957 536.143 406.66Z" fill="#F2F2F2"/>
<path d="M593.095 406.724L592.585 406.575C598.73 385.47 613.202 372.144 613.347 372.012L613.704 372.406C613.56 372.537 599.197 385.768 593.095 406.724Z" fill="#F2F2F2"/>
<path d="M484.905 406.686L484.378 406.613C486.463 391.567 482.697 379.894 479.17 372.75C475.352 365.016 470.995 360.792 470.951 360.75L471.319 360.366C471.363 360.408 475.787 364.697 479.647 372.515C483.206 379.725 487.008 391.506 484.905 406.686Z" fill="#F2F2F2"/>
<path d="M638.835 407.361H443.147L443.102 406.698C442.99 405.048 440.493 366.127 453.097 352.24C455.914 349.135 459.308 347.506 463.184 347.397C471.4 347.163 476.562 350.242 480.726 352.713C488.575 357.372 493.76 360.45 512.612 337.136C533.035 311.879 555.07 306.445 567.737 309.466C575.922 311.419 581.563 316.937 583.214 324.607C584.777 331.869 584.279 338.693 583.879 344.176C583.451 350.043 583.113 354.677 585.521 356.777C587.531 358.529 591.544 358.689 598.147 357.278C611.58 354.411 630.322 356.865 639.729 369.027C644.791 375.57 648.778 387.464 639.032 406.968L638.835 407.361ZM444.483 405.938H637.955C645.217 391.195 645.444 378.74 638.605 369.898C629.975 358.741 611.869 355.804 598.444 358.67C591.269 360.202 586.994 359.949 584.587 357.85C581.642 355.283 582.003 350.336 582.46 344.073C582.854 338.681 583.344 331.969 581.824 324.907C580.293 317.794 575.038 312.671 567.408 310.851C555.144 307.923 533.725 313.289 513.718 338.031C494.093 362.301 488.181 358.793 480.001 353.937C475.786 351.436 470.999 348.598 463.224 348.819C459.75 348.917 456.697 350.39 454.15 353.197C442.822 365.677 444.205 400.676 444.483 405.938V405.938Z" fill="#CFCCE0"/>
<path d="M303.27 273.72C289.478 273.72 277.385 288.134 270.716 309.657C270.244 311.167 269.802 312.719 269.389 314.294C266.58 325.328 265.186 336.675 265.238 348.061C265.238 389.054 282.296 422.401 303.27 422.401C324.244 422.401 341.303 389.054 341.303 348.061C341.303 307.067 324.244 273.72 303.27 273.72ZM303.27 421.221C282.951 421.221 266.417 388.399 266.417 348.061C266.362 336.626 267.775 325.233 270.621 314.159C271.01 312.678 271.427 311.226 271.871 309.805C278.363 288.877 290.009 274.9 303.27 274.9C323.59 274.9 340.124 307.722 340.124 348.061C340.124 388.399 323.59 421.221 303.27 421.221Z" fill="#3F3D56"/>
<path d="M312.411 391.043C305.136 391.043 299.438 372.163 299.438 348.061C299.438 323.958 305.136 305.078 312.411 305.078C319.685 305.078 325.383 323.958 325.383 348.061C325.383 372.163 319.685 391.043 312.411 391.043ZM312.411 306.258C306.019 306.258 300.618 325.401 300.618 348.061C300.618 370.72 306.019 389.863 312.411 389.863C318.803 389.863 324.204 370.72 324.204 348.061C324.204 325.401 318.803 306.258 312.411 306.258Z" fill="#3F3D56"/>
<path d="M313.885 357.933C316.653 357.933 318.897 353.513 318.897 348.061C318.897 342.608 316.653 338.188 313.885 338.188C311.117 338.188 308.873 342.608 308.873 348.061C308.873 353.513 311.117 357.933 313.885 357.933Z" fill="#CFCCE0"/>
<path d="M302.976 214.129L383.758 213.834V245.678L302.976 248.939V214.129Z" fill="#3F3D56"/>
<path d="M233.986 322.133L232.809 322.068L236.377 257.199H309.462V258.379H237.493L233.986 322.133Z" fill="#3F3D56"/>
<path d="M233.865 427.109L192.589 420.029L192.834 418.874L234.109 425.954L233.865 427.109Z" fill="#3F3D56"/>
<path d="M242.29 440.693L242.193 441.87L292.314 446L292.411 444.823L242.29 440.693Z" fill="#3F3D56"/>
<path d="M358.551 322.195C358.109 323.617 357.692 325.068 357.301 326.549L356.069 326.685L317.718 330.95L229.859 322.1L321.256 317.38L357.395 322.047L358.551 322.195Z" fill="#3F3D56"/>
<path d="M338.46 111.06C338.46 111.06 325.69 106.496 317.48 124.751C309.27 143.007 296.499 163.087 296.499 163.087L303.797 164.913C303.797 164.913 305.621 152.134 310.182 150.308L308.358 166.738C308.358 166.738 363.09 185.906 387.72 164.913L386.807 158.523C386.807 158.523 390.456 159.436 390.456 164.913L393.193 162.174C393.193 162.174 390.456 156.698 382.246 149.396C376.858 144.603 375.006 135.485 374.37 129.784C373.893 125.024 371.99 120.519 368.909 116.86C363.453 110.533 353.512 103.809 338.46 111.06Z" fill="#2F2E41"/>
<path d="M267.892 128.283L262.585 72.8223C262.585 72.8223 251.971 42.732 267.892 45.092C283.812 47.452 274.378 70.4623 274.378 70.4623L283.223 128.283H267.892Z" fill="#FFB9B9"/>
<path d="M226.615 380.216L220.719 400.276L231.922 409.716L240.177 384.346L226.615 380.216Z" fill="#FFB9B9"/>
<path d="M272.02 394.966L266.123 416.206L286.761 429.186C286.761 429.186 287.351 404.996 290.299 400.276L272.02 394.966Z" fill="#FFB9B9"/>
<path d="M297.375 281.685L294.426 287.585C294.426 287.585 260.816 272.245 251.971 293.485C243.127 314.725 223.668 381.986 223.668 381.986L240.768 389.066L272.019 317.675L343.367 315.905L346.316 276.375L297.375 281.685Z" fill="#2F2E41"/>
<path d="M322.14 291.715C322.14 291.715 273.788 281.685 270.25 305.875C266.712 330.065 272.019 376.086 272.609 377.266C273.198 378.446 270.25 400.276 270.25 400.276L291.478 403.226C291.478 403.226 305.04 338.915 299.143 322.395L339.039 319.926C352.811 319.074 364.061 308.188 364.853 294.405C365.156 289.128 363.836 284.34 359.288 281.685C345.136 273.425 319.191 273.425 319.191 273.425L322.14 291.715Z" fill="#2F2E41"/>
<path d="M228.385 399.686C228.385 399.686 224.257 390.836 218.361 394.966C212.464 399.096 198.902 407.946 198.902 407.946C198.902 407.946 177.923 415.338 196.544 420.336C213.107 424.782 217.181 423.876 217.181 423.876C217.181 423.876 230.743 426.237 232.512 425.056C234.281 423.876 235.461 404.996 235.461 404.996C235.461 404.996 227.206 403.226 228.385 399.686Z" fill="#2F2E41"/>
<path d="M274.378 417.976C274.378 417.976 268.482 409.716 264.354 413.256C260.226 416.796 245.485 426.826 245.485 426.826C245.485 426.826 220.72 433.907 242.537 440.397C264.354 446.887 288.53 445.707 289.119 443.347C289.709 440.987 287.94 423.876 287.94 423.876C287.94 423.876 275.557 423.286 274.378 417.976Z" fill="#2F2E41"/>
<path d="M345.137 169.583C356.86 169.583 366.364 160.074 366.364 148.343C366.364 136.613 356.86 127.103 345.137 127.103C333.413 127.103 323.909 136.613 323.909 148.343C323.909 160.074 333.413 169.583 345.137 169.583Z" fill="#FFB9B9"/>
<path d="M329.806 157.783C329.806 157.783 328.627 181.974 322.73 183.744C316.834 185.514 300.323 204.984 307.989 210.884C315.654 216.784 359.878 212.654 359.878 212.654L355.751 181.974C355.751 181.974 346.316 175.484 353.982 164.273L329.806 157.783Z" fill="#FFB9B9"/>
<path d="M329.215 197.904L325.088 178.434L311.526 173.124L300.322 199.084C300.322 199.084 287.645 283.16 291.183 284.34C293.168 285.041 295.272 285.342 297.374 285.225C297.374 285.225 316.243 279.325 322.14 282.275C328.036 285.225 358.698 287.585 358.698 287.585C358.698 287.585 379.926 276.375 378.746 266.345C377.567 256.314 378.746 200.264 378.746 200.264L376.093 175.189L352.827 178.83L329.215 197.904Z" fill="#CFCCE0"/>
<path d="M312.116 176.073L311.526 172.533L295.016 152.473L285.581 118.843L262.585 127.693L279.095 168.403L302.681 198.494L312.116 176.073Z" fill="#CFCCE0"/>
<path d="M317.249 150.883C317.249 150.883 324.547 140.843 330.932 139.018C337.318 137.192 338.23 128.065 338.23 128.065C338.23 128.065 354.65 146.32 364.684 147.232C374.718 148.145 365.596 125.326 365.596 125.326L347.352 120.763L330.02 122.588L316.337 131.716L317.249 150.883Z" fill="#2F2E41"/>
<path d="M385.528 287.31L384.957 263.099H330.084L328.331 328.017L327.151 327.984L328.936 261.919H386.097L386.116 262.489L386.706 287.27L385.528 287.31Z" fill="#3F3D56"/>
<path d="M384.348 254.249H383.169V209.214L402.203 214.742L401.873 215.876L384.348 210.785V254.249Z" fill="#3F3D56"/>
<path d="M389.95 286.11C376.158 286.11 364.064 300.524 357.395 322.047C356.924 323.558 356.481 325.109 356.069 326.685C353.26 337.718 351.865 349.065 351.917 360.451C351.917 401.444 368.976 434.792 389.95 434.792C410.924 434.792 427.983 401.444 427.983 360.451C427.983 319.457 410.924 286.11 389.95 286.11ZM389.95 433.612C369.631 433.612 353.097 400.79 353.097 360.451C353.042 349.017 354.455 337.623 357.301 326.549C357.69 325.068 358.107 323.617 358.551 322.195C365.043 301.267 376.689 287.29 389.95 287.29C410.269 287.29 426.803 320.112 426.803 360.451C426.803 400.79 410.27 433.612 389.95 433.612Z" fill="#3F3D56"/>
<path d="M399.09 403.433C391.815 403.433 386.117 384.553 386.117 360.451C386.117 336.349 391.815 317.468 399.09 317.468C406.364 317.468 412.062 336.349 412.062 360.451C412.062 384.553 406.364 403.433 399.09 403.433ZM399.09 318.648C392.697 318.648 387.296 337.791 387.296 360.451C387.296 383.11 392.697 402.253 399.09 402.253C405.482 402.253 410.883 383.11 410.883 360.451C410.883 337.791 405.482 318.648 399.09 318.648Z" fill="#3F3D56"/>
<path d="M400.564 370.323C403.332 370.323 405.576 365.903 405.576 360.451C405.576 354.998 403.332 350.579 400.564 350.579C397.796 350.579 395.552 354.998 395.552 360.451C395.552 365.903 397.796 370.323 400.564 370.323Z" fill="#CFCCE0"/>
<path d="M392.604 208.229L404.986 212.949L402.628 219.439L392.604 215.309V208.229Z" fill="#3F3D56"/>
<path d="M343.662 258.969V268.409H378.794V259.597L343.662 258.969Z" fill="#3F3D56"/>
<path d="M253.445 254.249V263.689H288.577V254.876L253.445 254.249Z" fill="#3F3D56"/>
<path d="M373.529 54.4665H133.172V-3.05176e-05H373.529V54.4665ZM134.586 53.0517H372.115V1.41469H134.586V53.0517Z" fill="#3F3D56"/>
<path d="M179.123 18.3913H152.26V45.2709H179.123V18.3913Z" fill="#096262"/>
<path d="M175.589 41.7341H147.312V13.4398H175.589V41.7341ZM148.725 40.3193H174.175V14.8545H148.725L148.725 40.3193Z" fill="#3F3D56"/>
<path d="M345.959 19.0986H220.125V20.5133H345.959V19.0986Z" fill="#3F3D56"/>
<path d="M345.959 29.0016H220.125V30.4163H345.959V29.0016Z" fill="#3F3D56"/>
<path d="M345.959 38.9046H220.125V40.3193H345.959V38.9046Z" fill="#3F3D56"/>
<path d="M317.718 231.344H317.431V223.487C317.431 222.89 317.314 222.299 317.085 221.747C316.857 221.196 316.522 220.694 316.1 220.272C315.678 219.85 315.177 219.515 314.626 219.286C314.074 219.058 313.483 218.94 312.887 218.94H296.252C295.655 218.94 295.064 219.058 294.512 219.286C293.961 219.515 293.46 219.85 293.038 220.272C292.616 220.694 292.281 221.196 292.053 221.747C291.825 222.299 291.707 222.89 291.707 223.487V266.589C291.707 267.186 291.825 267.777 292.053 268.329C292.281 268.881 292.616 269.382 293.038 269.804C293.46 270.227 293.961 270.562 294.512 270.79C295.064 271.019 295.655 271.136 296.252 271.136H312.887C313.483 271.136 314.074 271.019 314.626 270.79C315.177 270.562 315.678 270.227 316.1 269.804C316.522 269.382 316.857 268.881 317.085 268.329C317.314 267.777 317.431 267.186 317.431 266.589V236.936H317.718V231.344Z" fill="#3F3D56"/>
<path d="M304.712 235.115C306.25 235.115 307.496 233.868 307.496 232.329C307.496 230.791 306.25 229.544 304.712 229.544C303.175 229.544 301.929 230.791 301.929 232.329C301.929 233.868 303.175 235.115 304.712 235.115Z" fill="#D0CDE1"/>
<path d="M375.255 259.538L319.584 258.49C319.584 258.49 288.498 265.611 292.656 250.053C296.815 234.496 318.586 246.498 318.586 246.498L377.003 244.298L375.255 259.538Z" fill="#FFB9B9"/>
<path d="M369.607 179.319L374.914 175.189C374.914 175.189 383.759 170.469 385.528 186.989C387.297 203.509 400.269 258.38 387.297 258.97C374.324 259.56 341.304 260.15 341.304 260.15L344.842 241.859L371.966 240.089L369.607 179.319Z" fill="#CFCCE0"/>
<path opacity="0.15" d="M371.376 204.689L369.607 238.319L343.662 243.629L367.248 234.189L371.376 204.689Z" fill="black"/>
</g>
<defs>
<clipPath id="clip0">
<rect width="645" height="446" fill="white"/>
</clipPath>
</defs>
</svg>
