<svg width="899" height="664" viewBox="0 0 899 664" fill="none" xmlns="http://www.w3.org/2000/svg">
<g clip-path="url(#clip0)">
<path opacity="0.1" d="M58.8396 260.253H136.974V366.702H64.5526C64.3678 367.802 64.183 368.895 63.9751 369.995H136.974V455.828C136.851 455.828 136.728 455.736 136.612 455.69C134.559 454.874 132.506 454.009 130.453 453.096C130.014 452.896 129.582 452.688 129.136 452.496C127.083 451.526 125.029 450.5 122.976 449.418C122.26 449.041 121.544 448.648 120.844 448.248C109.445 441.891 99.0851 433.831 90.1226 424.347C89.8531 424.093 89.6067 423.816 89.3526 423.577C88.1053 422.223 86.8811 420.853 85.6954 419.453C85.2488 418.937 84.8176 418.414 84.3788 417.914C82.9775 416.205 81.6223 414.435 80.3134 412.658C80.1132 412.388 79.9285 412.127 79.736 411.888C74.374 404.473 69.9275 396.437 66.4928 387.956C66.385 387.702 66.285 387.425 66.1849 387.187C65.1223 384.493 64.1599 381.761 63.3284 378.976C62.9742 377.814 62.6277 376.667 62.3351 375.459C62.2273 375.113 62.1426 374.759 62.0502 374.412C57.7231 357.367 57.2227 339.653 57.2227 322.023C57.2227 319.971 57.2227 317.919 57.2227 315.867C57.2843 308.669 57.3689 301.479 57.4767 294.297C57.5178 292.45 57.5563 290.596 57.5922 288.733C57.7 284.019 57.854 279.294 58.0542 274.559C58.1004 273.251 58.162 271.935 58.2313 270.634C58.2621 269.88 58.3006 269.126 58.3468 268.372C58.4854 265.648 58.6496 262.942 58.8396 260.253Z" fill="#13DEDE"/>
<path opacity="0.1" d="M136.974 141.731H94.1108C101.082 130.838 108.694 120.37 116.909 110.381C123.284 102.562 129.998 94.944 136.974 87.6027V141.731Z" fill="#13DEDE"/>
<path opacity="0.1" d="M136.974 145.009V256.96H59.0859C59.0859 256.637 59.1321 256.306 59.1629 255.982C59.2322 255.097 59.3015 254.22 59.3785 253.335C59.4555 252.304 59.5556 251.273 59.6557 250.257C59.7558 249.241 59.8559 248.01 59.9791 246.894C60.1023 245.779 60.2024 244.647 60.3256 243.532C60.4487 242.416 60.5719 241.3 60.7105 240.192C60.8491 239.084 60.9723 237.96 61.1263 236.852C61.2418 235.936 61.3573 235.013 61.4882 234.089C61.6653 232.789 61.8501 231.488 62.0425 230.196C62.0425 229.996 62.1041 229.803 62.1349 229.611C63.5421 220.148 65.4543 210.767 67.8633 201.508C70.3932 191.797 73.6225 182.281 77.5262 173.035C81.6742 163.348 86.533 153.981 92.0628 145.009H136.974Z" fill="#13DEDE"/>
<path opacity="0.1" d="M155.637 260.253V366.702H322.532V260.253H155.637ZM155.637 369.995V461.415C156.592 461.607 157.532 461.8 158.479 461.961C159.749 462.207 161.027 462.431 162.328 462.623L163.098 462.731C163.606 462.815 164.122 462.885 164.638 462.946C165.924 463.131 167.21 463.269 168.488 463.392C169.088 463.454 169.712 463.5 170.32 463.554L171.806 463.662C172.615 463.723 173.416 463.77 174.216 463.8C174.709 463.8 175.202 463.839 175.702 463.854C176.203 463.87 176.472 463.854 176.873 463.854H178.328C178.99 463.854 179.652 463.854 180.307 463.854H181.154C181.816 463.854 182.478 463.854 183.132 463.793H183.171C183.633 463.793 184.087 463.793 184.549 463.739C184.68 463.746 184.811 463.746 184.942 463.739C185.327 463.739 185.712 463.739 186.081 463.693C186.168 463.686 186.256 463.686 186.343 463.693C187.198 463.639 188.06 463.569 188.93 463.493C189.8 463.416 190.624 463.323 191.494 463.231L193.242 463.015C200.384 462.016 207.446 460.514 214.377 458.521C229.953 454.181 245.175 448.11 260.743 443.67C280.854 437.937 303.09 435.112 322.524 442.092V369.995H155.637ZM322.532 141.731V0.0153825C304.262 -0.185519 286.041 1.94796 268.312 6.36396C226.049 16.9757 188.098 39.9922 155.637 69.3881V141.723H164.038V145.009H155.637V256.96H322.532V145.009H198.4V141.716L322.532 141.731ZM536.947 93.8589C526.491 93.4896 516.097 90.1883 506.688 85.071C488.717 75.3057 474.35 60.2076 458.304 47.4797C424.966 20.9542 383.619 4.94034 341.203 0.969593V141.731H579.433L580.026 141.108L536.947 93.8589ZM558.652 90.0113L581.666 115.259V83.3703C573.92 84.3476 567.175 86.6177 558.652 89.9805V90.0113ZM581.666 484.116V369.995H532.589C532.466 369.51 532.327 369.018 532.173 368.525C532.32 369.018 532.45 369.51 532.581 369.995H341.203V452.519C343.02 453.866 344.814 455.289 346.592 456.721C348.512 458.291 350.419 459.878 352.313 461.484L354.223 463.062C355.139 463.831 356.071 464.601 356.994 465.332C358.848 466.825 360.713 468.302 362.592 469.764C363.531 470.503 364.476 471.229 365.425 471.942C380.464 483.429 396.327 493.797 412.885 502.961C416.596 505.031 420.346 507.025 424.119 508.971C426.629 510.264 429.157 511.531 431.703 512.773C435.522 514.635 439.371 516.431 443.252 518.16C479.028 534.21 516.86 545.222 555.664 550.88C564.278 552.147 572.929 553.147 581.619 553.881V484.1H582.389L581.666 484.116ZM341.203 145.009V256.96H581.666V145.009H341.203ZM341.203 260.238V366.702H581.666V260.253L341.203 260.238ZM600.329 83.2164V118.845L629.695 86.6254C619.963 85.0197 610.174 83.8833 600.329 83.2164ZM600.329 260.253V366.702H834.201V260.253H600.329ZM833.377 492.557L834.201 369.995H600.329V555.12C615.393 555.746 630.48 555.564 645.525 554.574H645.787C652.973 554.112 660.126 553.455 667.245 552.603H667.407C705.401 548.183 742.549 538.266 777.687 523.161L833.377 492.557ZM879.32 277.737C878.432 275.685 877.521 273.633 876.587 271.581C874.847 267.733 873.014 263.993 871.12 260.261H852.872V366.702H899C898.962 336.552 891.324 305.771 879.32 277.737ZM852.872 369.995V475.42C865.862 462.977 876.849 448.733 884.748 432.45C894.257 412.835 898.607 391.611 898.969 369.988L852.872 369.995ZM852.872 229.234V256.937H869.411C864.398 247.414 858.877 238.166 852.872 229.234ZM694.263 104.109C693.046 103.64 691.822 103.17 690.598 102.724C677.69 97.956 664.499 93.993 651.1 90.8578L606.15 140.154L605.272 141.1L605.85 141.723H765.83C743.547 126.399 719.524 113.773 694.263 104.109ZM770.526 145.009H603.609L600.329 148.003V256.96H629.087H834.201V204.17C815.654 181.754 794.247 161.864 770.526 145.009Z" fill="#13DEDE"/>
<path opacity="0.1" d="M136.974 201.485V256.96H59.0859C59.0859 256.637 59.1321 256.306 59.1629 255.982C59.2322 255.098 59.3015 254.22 59.3785 253.335C59.4555 252.304 59.5556 251.273 59.6557 250.257C59.7558 249.241 59.8559 248.01 59.9791 246.894C60.1023 245.779 60.2024 244.647 60.3256 243.532C60.4487 242.416 60.5719 241.3 60.7105 240.192C60.8491 239.084 60.9723 237.96 61.1263 236.852C61.2418 235.936 61.3573 235.013 61.4882 234.09C61.6653 232.789 61.8501 231.489 62.0425 230.196C62.0425 229.996 62.1041 229.803 62.1349 229.611C63.5421 220.148 65.4543 210.767 67.8633 201.508L136.974 201.485Z" fill="#13DEDE"/>
<path opacity="0.1" d="M58.8396 260.253H136.974V366.702H64.5526C64.3678 367.802 64.183 368.895 63.9751 369.995H136.974V455.828C136.851 455.828 136.728 455.736 136.612 455.69C134.559 454.874 132.506 454.009 130.453 453.096C130.014 452.896 129.582 452.688 129.136 452.496C127.083 451.526 125.029 450.5 122.976 449.418C122.26 449.041 121.544 448.648 120.844 448.248C109.445 441.891 99.0851 433.831 90.1226 424.347C89.8531 424.093 89.6067 423.816 89.3526 423.577C88.1053 422.223 86.8811 420.853 85.6954 419.453C85.2488 418.937 84.8176 418.414 84.3788 417.914C82.9775 416.205 81.6223 414.435 80.3134 412.658C80.1132 412.388 79.9285 412.127 79.736 411.888C74.374 404.473 69.9275 396.437 66.4928 387.956C66.385 387.702 66.285 387.425 66.1849 387.187C65.1223 384.493 64.1599 381.761 63.3284 378.976C62.9742 377.814 62.6277 376.667 62.3351 375.459C62.2273 375.113 62.1426 374.759 62.0502 374.412C57.7231 357.367 57.2227 339.653 57.2227 322.023C57.2227 319.971 57.2227 317.919 57.2227 315.867C57.2843 308.669 57.3689 301.479 57.4767 294.297C57.5178 292.45 57.5563 290.596 57.5922 288.733C57.7 284.019 57.854 279.294 58.0542 274.559C58.1004 273.251 58.162 271.935 58.2313 270.634C58.2621 269.88 58.3006 269.126 58.3468 268.372C58.4854 265.648 58.6496 262.942 58.8396 260.253Z" fill="#13DEDE"/>
<path opacity="0.1" d="M214.385 161.046V256.96H155.63V161.046H164.007V128.572H198.393V161.046H214.385Z" fill="#13DEDE"/>
<path opacity="0.1" d="M214.377 260.246H155.63V366.694H214.377V260.246Z" fill="#13DEDE"/>
<path opacity="0.1" d="M155.637 369.995H214.385V458.491C207.455 460.485 200.392 461.984 193.249 462.977C192.664 463.062 192.087 463.131 191.502 463.192C190.639 463.292 189.785 463.385 188.93 463.462L186.351 463.67H186.089L184.949 463.731H184.557C184.095 463.731 183.64 463.785 183.179 463.793H183.14C182.478 463.793 181.823 463.839 181.161 463.854H180.314C179.66 463.854 179.005 463.854 178.336 463.854H176.888H175.71C175.21 463.854 174.717 463.854 174.216 463.793C173.426 463.762 172.625 463.716 171.814 463.654L170.328 463.546C169.712 463.5 169.096 463.439 168.488 463.377C167.194 463.264 165.911 463.118 164.638 462.939L163.098 462.723L162.328 462.615C161.042 462.423 159.764 462.207 158.479 461.961C157.524 461.792 156.584 461.6 155.637 461.399V369.995Z" fill="#13DEDE"/>
<path opacity="0.1" d="M581.658 149.719H533.213V256.952H581.658V149.719Z" fill="#13DEDE"/>
<path opacity="0.1" d="M581.666 260.246V366.702H341.203V320.784H469.284V347.871H533.213V260.246H581.666Z" fill="#13DEDE"/>
<path opacity="0.1" d="M582.428 484.139C582.174 484.139 581.92 484.139 581.658 484.093V553.927C572.978 553.214 564.329 552.216 555.711 550.934C516.892 545.278 479.046 534.272 443.252 518.229C432.919 513.571 422.797 508.494 412.885 503C396.332 493.831 380.472 483.463 365.433 471.981C361.645 469.087 357.913 466.13 354.238 463.108C351.69 460.999 349.164 458.845 346.593 456.759C344.822 455.32 343.028 453.897 341.203 452.542V369.995H532.581C532.443 369.503 532.32 369.018 532.181 368.526C532.327 369.018 532.466 369.503 532.589 369.995H581.666V484.085C581.92 484.093 582.174 484.116 582.428 484.139Z" fill="#13DEDE"/>
<path opacity="0.1" d="M708.014 141.731H676.446V131.927H690.59V102.724C691.817 103.175 693.039 103.637 694.255 104.109V131.927H708.006L708.014 141.731Z" fill="#13DEDE"/>
<path opacity="0.1" d="M784.077 256.96H629.087C629.102 256.963 629.118 256.963 629.133 256.96H629.064H600.329V149.726H608.475V228.988H645.694V182.047H676.454V145.009H708.022V182.07H738.766V229.011H784.085L784.077 256.96Z" fill="#13DEDE"/>
<path opacity="0.1" d="M600.329 260.253V366.702H784.085V260.253H600.329ZM833.939 491.996L834.201 407.733H784.085V370.026H600.329V555.12C615.393 555.746 630.48 555.564 645.525 554.574H645.787C652.973 554.112 660.126 553.455 667.245 552.604H667.407C705.4 548.184 742.549 538.266 777.687 523.162" fill="#13DEDE"/>
<path opacity="0.1" d="M856.106 369.995H898.969C898.6 391.611 894.257 412.842 884.748 432.45C876.849 448.741 865.862 462.985 852.873 475.428V407.71H856.106V369.995Z" fill="#13DEDE"/>
<path opacity="0.1" d="M899 366.702H856.106V277.737H879.32C891.324 305.771 898.962 336.552 899 366.702Z" fill="#13DEDE"/>
<path opacity="0.1" d="M581.665 179.53H555.71V213.151H581.665V179.53Z" fill="#13DEDE"/>
<path opacity="0.1" d="M581.665 249.218H555.71V256.96H581.665V249.218Z" fill="#13DEDE"/>
<path opacity="0.1" d="M581.665 260.246H555.71V282.831H581.665V260.246Z" fill="#13DEDE"/>
<path opacity="0.1" d="M581.665 318.907H555.71V352.527H581.665V318.907Z" fill="#13DEDE"/>
<path opacity="0.1" d="M581.665 388.595H555.71V422.215H581.665V388.595Z" fill="#13DEDE"/>
<path opacity="0.1" d="M581.665 484.085C581.919 484.085 582.174 484.085 582.435 484.139C582.181 484.139 581.927 484.139 581.665 484.093V491.903H555.71V458.283H581.665V484.085Z" fill="#13DEDE"/>
<path opacity="0.1" d="M581.665 527.963V553.927C572.98 553.214 564.329 552.216 555.71 550.934V527.963H581.665Z" fill="#13DEDE"/>
<path opacity="0.1" d="M452.437 364.232H341.203V366.702H452.437V364.232Z" fill="#13DEDE"/>
<path opacity="0.1" d="M452.437 369.988H341.203V379.453H452.437V369.988Z" fill="#13DEDE"/>
<path opacity="0.1" d="M452.437 410.48H341.203V425.701H452.437V410.48Z" fill="#13DEDE"/>
<path opacity="0.1" d="M452.437 456.728V471.95H365.433C361.645 469.067 357.913 466.106 354.238 463.069C351.682 460.969 349.156 458.814 346.593 456.728H452.437Z" fill="#13DEDE"/>
<path opacity="0.1" d="M452.437 502.969V518.229H443.252C432.919 513.571 422.797 508.494 412.885 503L452.437 502.969Z" fill="#13DEDE"/>
<path opacity="0.1" d="M667.423 270.565H645.525V292.45H667.423V270.565Z" fill="#13DEDE"/>
<path opacity="0.1" d="M193.303 168.595H171.406V190.48H193.303V168.595Z" fill="#13DEDE"/>
<path opacity="0.1" d="M193.303 219.43H171.406V241.315H193.303V219.43Z" fill="#13DEDE"/>
<path opacity="0.1" d="M193.303 270.265H171.406V292.15H193.303V270.265Z" fill="#13DEDE"/>
<path opacity="0.1" d="M193.303 321.092H171.406V342.977H193.303V321.092Z" fill="#13DEDE"/>
<path opacity="0.1" d="M193.303 371.927H171.406V393.812H193.303V371.927Z" fill="#13DEDE"/>
<path opacity="0.1" d="M193.303 422.762H171.406V444.647H193.303V422.762Z" fill="#13DEDE"/>
<path opacity="0.1" d="M751.016 270.565H729.119V292.45H751.016V270.565Z" fill="#13DEDE"/>
<path opacity="0.1" d="M667.423 324.547H645.525V346.432H667.423V324.547Z" fill="#13DEDE"/>
<path opacity="0.1" d="M751.016 324.547H729.119V346.432H751.016V324.547Z" fill="#13DEDE"/>
<path opacity="0.1" d="M667.423 378.522H645.525V400.407H667.423V378.522Z" fill="#13DEDE"/>
<path opacity="0.1" d="M751.016 378.522H729.119V400.407H751.016V378.522Z" fill="#13DEDE"/>
<path opacity="0.1" d="M667.423 432.504H645.525V454.389H667.423V432.504Z" fill="#13DEDE"/>
<path opacity="0.1" d="M751.016 432.504H729.119V454.389H751.016V432.504Z" fill="#13DEDE"/>
<path opacity="0.1" d="M667.423 486.486H645.525V508.371H667.423V486.486Z" fill="#13DEDE"/>
<path opacity="0.1" d="M751.016 486.486H729.119V508.371H751.016V486.486Z" fill="#13DEDE"/>
<path opacity="0.1" d="M645.525 554.574V540.461H667.415V552.565L645.525 554.574Z" fill="#13DEDE"/>
<path opacity="0.1" d="M62.0425 229.588V242.108H136.974V229.588H62.0425ZM69.5033 241.323H63.3437V230.38H69.5033V241.323ZM76.9641 241.323H70.8045V230.38H76.9641V241.323ZM84.4095 241.323H78.2499V230.38H84.4095V241.323ZM91.8703 241.323H85.7107V230.38H91.8703V241.323ZM99.3234 241.323H93.1638V230.38H99.3234V241.323ZM106.784 241.323H100.625V230.38H106.784V241.323ZM114.245 241.323H108.085V230.38H114.245V241.323ZM121.698 241.323H115.539V230.38H121.698V241.323ZM129.151 241.323H122.992V230.38H129.151V241.323ZM136.612 241.323H130.452V230.38H136.612V241.323Z" fill="#13DEDE"/>
<path opacity="0.1" d="M62.0425 266.032V278.553H136.974V266.032H62.0425ZM69.5033 277.768H63.3437V266.825H69.5033V277.768ZM76.9641 277.768H70.8045V266.825H76.9641V277.768ZM84.4095 277.768H78.2499V266.825H84.4095V277.768ZM91.8703 277.768H85.7107V266.825H91.8703V277.768ZM99.3234 277.768H93.1638V266.825H99.3234V277.768ZM106.784 277.768H100.625V266.825H106.784V277.768ZM114.245 277.768H108.085V266.825H114.245V277.768ZM121.698 277.768H115.539V266.825H121.698V277.768ZM129.151 277.768H122.992V266.825H129.151V277.768ZM136.612 277.768H130.452V266.825H136.612V277.768Z" fill="#13DEDE"/>
<path opacity="0.1" d="M62.0425 302.485V314.997H136.974V302.485H62.0425ZM69.5033 314.205H63.3437V303.262H69.5033V314.205ZM76.9641 314.205H70.8045V303.262H76.9641V314.205ZM84.4095 314.205H78.2499V303.262H84.4095V314.205ZM91.8703 314.205H85.7107V303.262H91.8703V314.205ZM99.3234 314.205H93.1638V303.262H99.3234V314.205ZM106.784 314.205H100.625V303.262H106.784V314.205ZM114.245 314.205H108.085V303.262H114.245V314.205ZM121.698 314.205H115.539V303.262H121.698V314.205ZM129.151 314.205H122.992V303.262H129.151V314.205ZM136.612 314.205H130.452V303.262H136.612V314.205Z" fill="#13DEDE"/>
<path opacity="0.1" d="M62.0425 338.93V351.442H136.974V338.93H62.0425ZM69.5033 350.657H63.3437V339.699H69.5033V350.657ZM76.9641 350.657H70.8045V339.699H76.9641V350.657ZM84.4095 350.657H78.2499V339.699H84.4095V350.657ZM91.8703 350.657H85.7107V339.699H91.8703V350.657ZM99.3234 350.657H93.1638V339.699H99.3234V350.657ZM106.784 350.657H100.625V339.699H106.784V350.657ZM114.245 350.657H108.085V339.699H114.245V350.657ZM121.698 350.657H115.539V339.699H121.698V350.657ZM129.151 350.657H122.992V339.699H129.151V350.657ZM136.612 350.657H130.452V339.699H136.612V350.657Z" fill="#13DEDE"/>
<path opacity="0.1" d="M62.4043 375.359C62.6969 376.544 63.0434 377.714 63.3975 378.876V376.151H69.5571V387.086H66.254C66.3464 387.348 66.4465 387.617 66.5543 387.856H137.005V375.359H62.4043ZM77.0333 387.086H70.8737V376.151H77.0333V387.086ZM84.4787 387.086H78.3191V376.151H84.4787V387.086ZM91.9395 387.086H85.7799V376.151H91.9395V387.086ZM99.3926 387.086H93.233V376.151H99.3926V387.086ZM106.853 387.086H100.694V376.151H106.853V387.086ZM114.314 387.086H108.155V376.151H114.314V387.086ZM121.767 387.086H115.608V376.151H121.767V387.086ZM129.22 387.086H123.061V376.151H129.22V387.086ZM136.681 387.086H130.522V376.151H136.681V387.086Z" fill="#13DEDE"/>
<path opacity="0.1" d="M79.759 411.804C79.9592 412.05 80.144 412.327 80.3365 412.573H84.4095V417.829L85.7261 419.368V412.542H91.8857V423.577H89.3526C89.599 423.831 89.8377 424.101 90.1225 424.347H136.959V411.804H79.759ZM99.3619 423.577H93.2023V412.588H99.3619V423.577ZM106.823 423.577H100.663V412.588H106.823V423.577ZM114.284 423.577H108.124V412.588H114.284V423.577ZM121.737 423.577H115.577V412.588H121.737V423.577ZM129.19 423.577H123.03V412.588H129.19V423.577ZM136.651 423.577H130.491V412.588H136.651V423.577Z" fill="#13DEDE"/>
<path opacity="0.1" d="M120.867 448.248C121.575 448.648 122.291 449.018 123.007 449.41V449.026H129.167V452.496C129.613 452.688 130.037 452.896 130.476 453.096V449.026H136.635V455.69C136.752 455.742 136.873 455.786 136.997 455.82V448.248H120.867Z" fill="#13DEDE"/>
<path opacity="0.1" d="M581.658 484.085H582.428H581.658ZM532.173 368.525C532.32 369.018 532.45 369.51 532.581 369.995C532.466 369.51 532.327 369.018 532.173 368.525ZM164.038 141.731V145.009H198.431V141.716L164.038 141.731ZM581.666 484.085H582.435H581.666ZM532.173 368.525C532.32 369.018 532.45 369.51 532.581 369.995C532.466 369.51 532.327 369.018 532.173 368.525ZM581.658 484.085H582.428H581.658ZM532.173 368.525C532.32 369.018 532.45 369.51 532.581 369.995C532.466 369.51 532.327 369.018 532.173 368.525Z" fill="#13DEDE"/>
<path opacity="0.1" d="M677.116 664C718.551 664 752.14 658.608 752.14 651.957C752.14 645.306 718.551 639.914 677.116 639.914C635.682 639.914 602.092 645.306 602.092 651.957C602.092 658.608 635.682 664 677.116 664Z" fill="#13DEDE"/>
<path opacity="0.1" d="M338.754 651.957C380.189 651.957 413.778 646.565 413.778 639.914C413.778 633.263 380.189 627.871 338.754 627.871C297.32 627.871 263.73 633.263 263.73 639.914C263.73 646.565 297.32 651.957 338.754 651.957Z" fill="#13DEDE"/>
<path d="M425.127 321.469C425.109 321.393 425.069 321.323 425.012 321.269C423.865 320.138 409.236 299.461 409.236 299.461C409.236 299.461 408.466 297.152 407.218 294.151C407.618 293.634 407.918 293.046 408.104 292.419C408.171 292.154 408.22 291.884 408.25 291.612C408.25 291.527 408.312 291.458 408.335 291.373C408.602 290.329 408.575 289.232 408.258 288.202C408.172 288.467 408.067 288.724 407.942 288.972C407.652 288.076 407.265 287.214 406.787 286.402C404.847 283.062 402.075 280.246 400.035 276.991C396.945 271.933 395.717 265.957 396.562 260.092C396.562 260.392 396.562 260.7 396.562 261C396.639 259.837 396.794 258.68 397.024 257.537C397.346 256.236 397.776 254.965 398.31 253.735C400.142 249.542 403.107 245.886 404.908 241.677C405.513 240.257 405.972 238.78 406.279 237.268C406.914 234.742 407.145 232.132 406.964 229.534C406.964 230.15 406.864 230.765 406.772 231.373C406.577 225.127 404.053 219.179 399.696 214.697C393.405 208.38 384.374 205.925 375.735 204.632C372.105 204.209 368.638 202.886 365.649 200.784C362.33 198.637 358.042 198.122 354.161 198.591C349.701 199.073 345.557 201.121 342.466 204.37C338.362 208.88 336.583 215.267 331.794 219.068C328.891 221.377 325.211 222.454 321.831 224.024C318.451 225.594 315.256 227.872 314.17 231.242C314.17 231.242 314.17 231.196 314.17 231.173V231.365L314.124 231.489C313 235.475 315.171 239.53 316.303 243.508C317.481 247.625 317.558 251.973 317.619 256.229C317.704 261.431 317.781 266.64 317.696 271.85C317.658 273.897 317.588 275.967 317.435 278.006C315.612 278.557 313.842 279.268 312.145 280.13C310.42 281.254 303.968 288.218 303.968 288.218L291.349 336.406L291.518 336.598L291.349 337.252L291.988 337.106C293.774 339.03 299.11 344.509 304.869 347.925L305.408 357.375C305.408 357.375 306.055 366.856 314.778 370.773C314.978 374.058 315.602 387.402 312.715 392.689C310.715 396.551 309.775 400.873 309.989 405.216C309.989 405.216 310.998 413.235 309.851 417.452C309.18 420.27 309.13 423.2 309.704 426.04C309.704 426.04 309.704 426.971 309.704 428.572C309.704 437.106 309.804 464.455 309.704 467.548C309.558 471.203 309.704 525.262 309.704 525.262C309.704 525.262 308.988 552.28 306.694 559.599C304.399 566.917 304.977 591.149 304.977 591.149C304.977 591.149 303.537 620.014 308.626 625.708C308.626 625.962 308.58 626.224 308.572 626.478C308.572 626.593 308.572 626.724 308.572 626.84C308.511 629.033 308.934 631.365 310.821 632.08C314.67 633.558 319.76 637.99 320.722 639.26C321.685 640.53 327.282 643.692 334.581 642.846C339.154 642.332 343.755 642.121 348.356 642.215C348.356 642.215 351.235 641.691 350.304 638.113C349.703 635.882 347.455 632.45 345.853 630.195C346.146 630.272 346.431 630.333 346.7 630.387L346.977 630.441H347.193C347.311 630.448 347.429 630.448 347.547 630.441H347.701C347.845 630.453 347.989 630.453 348.132 630.441C350.065 630.256 357.272 633.612 358.557 635.828C359.843 638.044 364.378 639.729 367.797 640.152C369.83 640.399 374.957 639.983 379.261 639.429C381.429 639.205 383.576 638.814 385.683 638.259C386.699 637.875 386.915 636.643 386.622 635.258C386.276 633.499 385.336 631.912 383.958 630.764C382.711 629.879 381.063 627.548 379.847 625.639L379.523 625.124C381.671 623.077 385.552 616.382 386.73 614.997C388.162 613.311 384.42 551.68 384.42 551.68V520.784L390.156 491.542L394.168 476.067L397.609 452.704C397.609 452.704 403.63 425.416 401.775 422.739C401.775 422.685 400.235 394.589 398.618 387.841C397.917 384.832 398.094 378.06 398.51 371.473C398.945 371.042 399.248 370.496 399.384 369.899C399.52 369.302 399.484 368.679 399.28 368.102C399.165 367.708 399.016 367.324 398.834 366.956C398.834 366.84 398.834 366.717 398.834 366.602C402.16 365.072 405.635 363.891 409.205 363.077C414.941 361.954 413.509 358.999 413.509 358.999C413.509 358.999 414.802 356.467 415.657 354.92C416.512 353.374 415.803 339.722 415.657 338.599C415.603 338.145 415.249 335.636 414.841 332.789C416.681 331.481 419.075 329.857 421.686 328.318C426.652 325.378 425.535 322.277 425.127 321.469ZM350.288 516.567C350.288 516.567 345.984 527.54 347.709 530.349C349.434 533.158 347.424 543.585 347.424 543.585L345.984 559.06C345.984 559.06 341.973 587.763 343.405 594.512C344.529 599.806 344.945 615.62 345.076 622.215C344.977 622.253 344.882 622.299 344.791 622.353L344.598 622.453C345.26 619.86 344.983 614.612 341.696 604.054L341.418 560.445C341.418 560.445 340.91 510.072 344.891 504.439C348.872 498.806 350.281 489.241 350.281 489.241C350.281 489.241 349.418 503.039 348.856 506.694C348.294 510.349 350.288 516.567 350.288 516.567ZM342.273 624.962C342.235 625.054 342.188 625.147 342.158 625.231L341.942 624.954C342.052 624.965 342.163 624.968 342.273 624.962Z" fill="url(#paint0_linear)"/>
<path d="M386.168 642.246C383.943 643.1 371.878 644.554 368.505 644.146C365.133 643.738 360.667 642.03 359.397 639.798C358.126 637.567 351.004 634.196 349.095 634.412C348.312 634.435 347.531 634.326 346.785 634.089C345.468 633.69 344.181 633.196 342.935 632.611C342.761 631.641 342.79 630.645 343.02 629.687C343.064 629.494 343.121 629.303 343.189 629.117C343.639 627.855 344.568 626.821 345.776 626.239L346.054 626.109C346.587 625.878 347.145 625.708 347.717 625.601C353.768 624.439 378.738 626.77 378.738 626.77C378.738 626.77 379.439 628.025 380.401 629.579C381.602 631.503 383.234 633.85 384.466 634.735C385.831 635.901 386.757 637.497 387.092 639.26C387.384 640.622 387.169 641.868 386.168 642.246Z" fill="white"/>
<path opacity="0.1" d="M386.168 642.246C383.943 643.1 371.885 644.554 368.513 644.146C365.141 643.738 360.675 642.022 359.397 639.798C358.119 637.575 351.012 634.196 349.103 634.412C347.193 634.627 342.943 632.611 342.943 632.611C342.943 632.611 342.281 629.533 344.206 627.432L348.055 630.164C348.055 630.164 358.357 633.358 360.267 636.32C362.176 639.283 365.657 640.937 370.684 641.237C374.442 641.484 383.073 640.022 387.115 639.291C387.384 640.622 387.177 641.868 386.168 642.246Z" fill="black"/>
<path d="M349.31 646.17C344.769 646.082 340.226 646.295 335.713 646.809C328.483 647.655 322.963 644.5 322 643.2C321.038 641.899 316.056 637.505 312.23 635.966C310.359 635.243 309.92 632.888 310.004 630.687C310.004 630.572 310.004 630.441 310.004 630.326C310.075 628.931 310.282 627.547 310.62 626.193L340.579 625.555L343.174 629.071L343.574 629.61L345.153 631.757C345.153 631.757 345.869 632.696 346.808 634.065C348.394 636.374 350.612 639.783 351.204 642.038C352.151 645.647 349.31 646.17 349.31 646.17Z" fill="white"/>
<path opacity="0.1" d="M349.31 646.17C344.769 646.082 340.226 646.295 335.713 646.809C328.491 647.655 322.963 644.5 322.008 643.2C321.053 641.899 316.056 637.467 312.23 635.982C310.359 635.258 309.92 632.903 310.004 630.703C312.145 631.203 316.641 632.48 318.405 634.704C320.714 637.674 324.849 642.669 330.724 642.984C335.467 643.238 347.016 642.392 351.251 642.053C352.159 645.647 349.31 646.17 349.31 646.17Z" fill="black"/>
<path opacity="0.1" d="M345.746 626.209C345.399 628.779 344.329 629.471 343.559 629.625C343.371 629.662 343.177 629.662 342.989 629.625C342.888 629.618 342.788 629.603 342.689 629.579C342.689 629.579 315.787 635.52 310.351 630.71C310.213 630.587 310.084 630.453 309.966 630.31C310.037 628.916 310.243 627.532 310.582 626.178L340.541 625.539L343.135 629.056C343.585 627.793 344.515 626.759 345.723 626.178L345.746 626.209Z" fill="black"/>
<path opacity="0.1" d="M380.393 629.548C379.793 630.21 379.292 630.587 378.977 630.456C377.56 629.887 365.949 627.909 362.261 629.61C358.573 631.311 346.092 629.887 346.092 629.887C346.092 629.887 346.092 628.409 346.023 626.039C346.556 625.809 347.114 625.639 347.686 625.531C353.738 624.369 378.707 626.701 378.707 626.701C378.707 626.701 379.438 627.994 380.393 629.548Z" fill="black"/>
<path d="M397.963 455.482L394.56 478.983L390.603 494.558L384.936 524V555.166C384.936 555.166 388.616 617.174 387.199 618.867C385.783 620.56 380.401 630.203 378.984 629.641C377.567 629.079 365.957 627.094 362.268 628.787C358.58 630.48 346.1 629.071 346.1 629.071C346.1 629.071 345.815 605.008 344.398 598.213C342.981 591.418 346.946 562.538 346.946 562.538L348.363 546.971C348.363 546.971 350.35 536.49 348.648 533.658C346.946 530.826 351.197 519.806 351.197 519.806C351.197 519.806 349.218 513.566 349.788 509.887C350.357 506.209 351.197 492.334 351.197 492.334C351.197 492.334 349.788 501.969 345.853 507.625C341.919 513.281 342.419 563.969 342.419 563.969L342.696 607.832C349.788 631.057 342.696 628.787 342.696 628.787C342.696 628.787 315.794 634.735 310.359 629.918C304.923 625.101 306.478 594.781 306.478 594.781C306.478 594.781 305.916 570.434 308.18 563.077C310.443 555.72 311.159 528.533 311.159 528.533C311.159 528.533 311.013 474.166 311.159 470.495C311.267 467.417 311.159 439.86 311.159 431.249C311.159 429.649 311.159 428.702 311.159 428.702L314.408 420.638L352.906 415.82H371.323C371.323 415.82 399.041 422.331 401.905 425.139C401.967 425.186 402.019 425.244 402.059 425.309C403.915 428.025 397.963 455.482 397.963 455.482Z" fill="#096262"/>
<path opacity="0.1" d="M351.22 578.929C351.22 578.929 359.689 599.314 363.685 600.73C367.681 602.146 351.22 578.929 351.22 578.929Z" fill="black"/>
<path opacity="0.1" d="M354.354 608.94C354.354 608.94 382.949 610.356 382.665 613.473C382.38 616.59 354.354 608.94 354.354 608.94Z" fill="black"/>
<path opacity="0.1" d="M316.095 600.791C317.227 601.861 337.907 603.869 336.206 605.824C334.504 607.778 317.796 611.58 317.796 611.58L316.095 600.791Z" fill="black"/>
<path opacity="0.1" d="M312.699 565.624C312.699 566.47 316.949 592.804 318.089 593.935C319.228 595.066 328.568 596.197 328.568 596.197L312.699 565.624Z" fill="black"/>
<path d="M343.536 205.686C339.478 210.219 337.723 216.644 332.995 220.477C330.123 222.785 326.489 223.886 323.148 225.455C319.806 227.025 316.495 229.419 315.502 232.974C314.393 236.975 316.534 241.061 317.658 245.063C318.821 249.203 318.89 253.528 318.959 257.86C319.036 263.101 319.121 268.341 319.028 273.582C318.89 281.746 318.212 290.288 313.877 297.206C329.531 302.185 346.177 302.862 362.592 303.501C365.747 303.726 368.916 303.646 372.055 303.262C374.775 302.72 377.466 302.04 380.116 301.223C385.357 299.837 390.757 299.146 396.177 299.168C398.541 299.168 400.951 299.314 403.23 298.699C405.509 298.083 407.703 296.506 408.319 294.228C408.866 292.181 408.065 290.003 407.018 288.164C405.109 284.809 402.398 282.008 400.35 278.699C398.26 275.204 397.019 271.267 396.729 267.205C396.439 263.143 397.107 259.07 398.68 255.313C400.497 251.088 403.423 247.41 405.209 243.178C407.038 238.633 407.525 233.66 406.611 228.848C405.696 224.035 403.419 219.586 400.05 216.029C393.837 209.672 384.921 207.21 376.39 205.902C372.797 205.478 369.371 204.154 366.426 202.054C363.154 199.9 358.912 199.376 355.077 199.853C350.654 200.349 346.557 202.419 343.536 205.686Z" fill="#3F3D56"/>
<g opacity="0.1">
<path opacity="0.1" d="M398.918 250.873C397.348 254.581 396.676 258.607 396.955 262.623C397.127 259.751 397.791 256.93 398.918 254.282C400.728 250.057 403.653 246.379 405.44 242.146C406.9 238.612 407.514 234.786 407.234 230.973C407.075 233.646 406.469 236.273 405.44 238.745C403.653 242.977 400.728 246.648 398.918 250.873Z" fill="black"/>
<path opacity="0.1" d="M319.19 256.814C319.236 259.83 319.282 262.854 319.29 265.871C319.29 261.715 319.251 257.568 319.19 253.42C319.128 249.118 319.051 244.763 317.889 240.615C317.119 237.983 315.979 235.313 315.579 232.658C314.894 236.429 316.842 240.253 317.889 244.016C319.051 248.126 319.128 252.512 319.19 256.814Z" fill="black"/>
<path opacity="0.1" d="M403.492 294.297C401.182 294.92 398.81 294.782 396.447 294.767C391.03 294.732 385.633 295.41 380.393 296.783C377.742 297.596 375.052 298.274 372.332 298.814C369.191 299.204 366.019 299.287 362.861 299.06C347.001 298.437 330.916 297.768 315.725 293.235C315.274 294.241 314.76 295.218 314.185 296.159C329.838 301.131 346.485 301.815 362.892 302.454C366.05 302.68 369.221 302.598 372.363 302.208C375.073 301.673 377.753 300.997 380.393 300.184C385.622 298.806 391.009 298.121 396.416 298.145C398.78 298.145 401.182 298.291 403.461 297.668C405.74 297.044 407.934 295.482 408.55 293.204C408.81 292.149 408.783 291.044 408.473 290.003C407.788 292.158 405.671 293.658 403.492 294.297Z" fill="black"/>
</g>
<path d="M380.686 285.178C380.116 286.456 377.714 297.491 377.144 298.622C376.574 299.753 373.464 317.86 373.179 318.876C372.894 319.892 352.675 314.628 352.675 314.628L340.502 304.432L327.991 291.989C327.991 291.989 327.621 280.761 336.837 277.16C337.464 276.914 338.107 276.713 338.762 276.56C349.942 273.874 348.818 239.899 348.818 239.899L371.762 249.803C371.762 249.803 367.512 269.626 367.658 273.451C367.697 274.736 368.705 275.536 370.022 276.021C372.058 276.6 374.177 276.829 376.289 276.698C376.289 276.698 381.256 283.909 380.686 285.178Z" fill="#FBBEBE"/>
<path d="M421.763 322.408L425.019 323.262C425.019 323.262 427.429 326.925 421.763 330.334C418.164 332.518 414.71 334.932 411.422 337.56L394.676 342.654L391.45 332.535L407.033 320.715L421.763 322.408Z" fill="#13DEDE"/>
<path opacity="0.1" d="M421.763 322.408L425.019 323.262C425.019 323.262 427.429 326.925 421.763 330.334C418.164 332.518 414.71 334.932 411.422 337.56L394.676 342.654L391.45 332.535L407.033 320.715L421.763 322.408Z" fill="black"/>
<path d="M299.549 332.181L293.035 338.553C293.035 338.553 304.784 352.142 313.824 352.989C322.863 353.835 328.691 342.654 328.691 342.654L320.869 330.342L299.549 332.181Z" fill="#13DEDE"/>
<path opacity="0.1" d="M299.549 332.181L293.035 338.553C293.035 338.553 304.784 352.142 313.824 352.989C322.863 353.835 328.691 342.654 328.691 342.654L320.869 330.342L299.549 332.181Z" fill="black"/>
<path opacity="0.1" d="M361.422 262.1C373.936 262.1 384.081 251.961 384.081 239.453C384.081 226.945 373.936 216.806 361.422 216.806C348.907 216.806 338.762 226.945 338.762 239.453C338.762 251.961 348.907 262.1 361.422 262.1Z" fill="black"/>
<path d="M361.422 260.4C373.936 260.4 384.081 250.26 384.081 237.752C384.081 225.245 373.936 215.105 361.422 215.105C348.907 215.105 338.762 225.245 338.762 237.752C338.762 250.26 348.907 260.4 361.422 260.4Z" fill="#FBBEBE"/>
<path opacity="0.1" d="M402.075 427.879C396.915 428.469 391.833 429.607 386.915 431.273C378.445 434.089 312.076 431.319 311.152 431.273C311.152 429.672 311.152 428.725 311.152 428.725L314.401 420.661L352.898 415.844H371.315C371.315 415.844 399.034 422.354 401.898 425.163C402.013 426.855 402.075 427.879 402.075 427.879Z" fill="black"/>
<path opacity="0.1" d="M380.686 285.178C380.116 286.456 377.714 297.491 377.144 298.622C376.574 299.753 373.464 317.86 373.179 318.876C372.894 319.892 352.675 314.628 352.675 314.628L340.502 304.432L327.991 291.989C327.991 291.989 327.621 280.761 336.837 277.16L359.72 303.454L370.022 276.021C372.058 276.6 374.177 276.829 376.289 276.698C376.289 276.698 381.256 283.909 380.686 285.178Z" fill="black"/>
<path d="M359.72 304.301L336.298 277.368C334.927 276.493 333.36 275.972 331.738 275.853C330.116 275.733 328.49 276.018 327.005 276.683C321.762 278.953 315.248 280.792 313.546 281.923C311.845 283.054 305.469 290.057 305.469 290.057L324.456 339.699L316.095 372.396C316.095 372.396 317.373 389.103 314.116 395.19C312.133 399.081 311.204 403.424 311.421 407.787C311.421 407.787 312.414 415.859 311.283 420.099C310.621 422.934 310.571 425.877 311.136 428.733C311.136 428.733 378.422 431.565 386.915 428.733C391.832 427.063 396.915 425.925 402.075 425.34C402.075 425.34 400.535 397.021 398.995 390.226C397.455 383.431 400.273 357.529 400.273 357.529L398.433 329.78L409.474 301.307C409.474 301.307 403.492 283.054 397.255 281.215C397.255 281.215 385.929 278.522 383.519 277.252C381.109 275.982 374.026 274.844 374.026 274.844L370.307 276.09L359.72 304.301Z" fill="#096262"/>
<path opacity="0.1" d="M392.399 328.843L343.112 325.493C341.865 325.409 340.785 326.351 340.7 327.597L335.409 405.37C335.324 406.617 336.267 407.696 337.514 407.781L386.8 411.131C388.047 411.215 389.127 410.274 389.212 409.027L394.503 331.254C394.588 330.007 393.646 328.928 392.399 328.843Z" fill="black"/>
<path d="M394.096 327.154L344.809 323.804C343.562 323.72 342.482 324.661 342.397 325.908L337.106 403.681C337.021 404.928 337.964 406.007 339.211 406.092L388.497 409.442C389.744 409.526 390.824 408.584 390.909 407.338L396.2 329.565C396.285 328.318 395.343 327.239 394.096 327.154Z" fill="#3F3D56"/>
<path d="M392.469 333.25L345.595 330.065L340.778 400.867L387.652 404.052L392.469 333.25Z" fill="white"/>
<path opacity="0.1" d="M388.266 351.322L349.977 348.643L349.23 359.309L387.519 361.988L388.266 351.322Z" fill="black"/>
<path opacity="0.1" d="M386.881 393.707L380.804 393.294L380.426 398.852L386.503 399.265L386.881 393.707Z" fill="black"/>
<path opacity="0.1" d="M380.887 380.292L349.784 378.178L349.406 383.736L380.509 385.85L380.887 380.292Z" fill="black"/>
<path d="M386.668 330.603L354.281 328.402L353.7 336.947L386.086 339.148L386.668 330.603Z" fill="#3F3D56"/>
<path opacity="0.1" d="M386.668 330.603L354.281 328.402L353.7 336.947L386.086 339.148L386.668 330.603Z" fill="black"/>
<path opacity="0.1" d="M362.554 426.317C362.554 426.317 362.269 468.225 351.22 492.288C351.22 492.288 364.54 460.576 364.54 459.306C364.54 458.037 371.901 444.724 369.93 440.761C367.959 436.798 362.554 426.317 362.554 426.317Z" fill="black"/>
<path opacity="0.1" d="M363.154 232.089C362.731 228.379 363.64 224.641 365.718 221.539C365.471 224.648 366.351 227.742 368.197 230.257C370.043 232.771 372.732 234.539 375.774 235.236C375.514 235.011 375.329 234.713 375.242 234.38C375.156 234.048 375.172 233.697 375.289 233.374C376.867 235.159 378.076 237.275 379.862 238.845C381.648 240.415 384.328 241.354 386.43 240.238C389.286 238.699 389.317 234.644 388.578 231.489C386.992 224.769 383.737 218.558 379.115 213.428C377.962 211.877 376.465 210.614 374.742 209.738C373.019 208.863 371.116 208.398 369.183 208.38C364.81 208.041 360.267 208.426 356.348 210.388C354.142 211.591 352.077 213.034 350.188 214.69L339.409 223.478C338.372 224.225 337.484 225.159 336.791 226.233C336.329 227.13 336.051 228.112 335.975 229.118C335.7 231.996 336.232 234.894 337.514 237.487C338.795 240.079 340.774 242.263 343.228 243.793C343.176 241.518 343.802 239.28 345.026 237.361C346.25 235.443 348.018 233.932 350.104 233.02C350.43 233.293 350.695 233.633 350.879 234.016C351.064 234.4 351.164 234.818 351.174 235.244L353.445 231.196C353.783 230.46 354.315 229.829 354.985 229.372C356.386 228.603 358.134 229.511 359.328 230.596C360.521 231.681 361.684 233.035 363.285 233.205L363.347 227.179" fill="black"/>
<path d="M363.154 231.242C362.73 227.53 363.638 223.789 365.718 220.684C365.025 226.841 369.668 233.197 375.781 234.382C375.521 234.159 375.336 233.862 375.249 233.53C375.163 233.199 375.179 232.849 375.296 232.527C376.875 234.313 378.083 236.421 379.87 237.999C381.656 239.576 384.335 240.507 386.437 239.384C389.294 237.845 389.325 233.789 388.586 230.642C386.999 223.923 383.745 217.712 379.123 212.581C377.689 210.834 375.881 209.43 373.833 208.472C372.351 207.924 370.793 207.607 369.214 207.533C364.84 207.195 360.298 207.572 356.379 209.534C354.175 210.742 352.109 212.187 350.219 213.843L339.44 222.631C338.401 223.376 337.513 224.311 336.822 225.386C336.358 226.283 336.081 227.265 336.006 228.272C335.731 231.149 336.264 234.045 337.545 236.636C338.826 239.227 340.805 241.41 343.259 242.939C343.209 240.665 343.836 238.427 345.06 236.509C346.284 234.591 348.05 233.079 350.134 232.166C350.46 232.44 350.724 232.78 350.908 233.163C351.092 233.546 351.194 233.964 351.204 234.39L353.468 230.357C353.804 229.619 354.337 228.988 355.008 228.534C356.409 227.764 358.157 228.672 359.351 229.757C360.544 230.842 361.707 232.189 363.308 232.366L363.37 226.333" fill="#3F3D56"/>
<path d="M373.887 374.089C371.908 373.089 339.186 378.191 339.186 378.191C339.186 378.191 333.796 376.652 320.768 374.512C307.741 372.373 306.909 359.645 306.909 359.645L305.485 334.166L309.881 330.319L328.714 342.631C328.714 342.631 329.007 348.856 328.714 349.98C328.529 350.749 328.037 351.665 328.083 352.289C328.097 352.457 328.167 352.617 328.281 352.742C328.395 352.867 328.547 352.951 328.714 352.981C329.992 353.304 347.409 356.121 347.409 356.121C347.409 356.121 387.777 353.358 397.84 366.948C398.638 367.946 399.241 369.084 399.619 370.303C402.113 379.591 375.681 374.974 373.887 374.089Z" fill="#FBBEBE"/>
<path opacity="0.1" d="M399.642 370.357C398.102 371.042 397.147 371.534 397.147 371.534C397.147 371.534 382.703 371.111 374.588 368.172C366.473 365.232 356.609 365.755 356.609 365.755C356.609 365.755 322.793 359.938 328.037 352.342C328.051 352.511 328.121 352.671 328.235 352.796C328.349 352.921 328.501 353.005 328.668 353.035C329.946 353.358 347.362 356.175 347.362 356.175C347.362 356.175 387.731 353.412 397.794 367.002C398.616 367.994 399.243 369.132 399.642 370.357Z" fill="black"/>
<path d="M413.686 325.524C413.686 325.524 415.672 339.537 415.811 340.676C415.95 341.815 416.666 355.536 415.811 357.098C414.956 358.66 413.686 361.2 413.686 361.2C413.686 361.2 415.103 364.17 409.436 365.309C403.769 366.448 397.117 369.834 397.117 369.834C397.117 369.834 382.665 369.41 374.596 366.44C366.527 363.47 356.61 364.031 356.61 364.031C356.61 364.031 313.685 356.667 332.102 347.679C350.519 338.691 363.547 350.865 363.547 350.865L384.081 349.595C384.081 349.595 391.735 344.916 393.86 345.347C395.36 345.538 396.884 345.293 398.248 344.639L398.395 329.772L413.686 325.524Z" fill="#FBBEBE"/>
<path opacity="0.1" d="M309.558 291.127L305.446 290.911L292.989 339.391C292.989 339.391 306.44 335.99 312.237 339.391C318.035 342.793 328.668 343.493 328.668 343.493L324.703 304.847L309.558 291.127Z" fill="black"/>
<path d="M309.558 290.272L305.446 290.057L292.989 338.537C292.989 338.537 306.44 335.136 312.237 338.537C318.035 341.938 328.668 342.639 328.668 342.639L324.703 303.993L309.558 290.272Z" fill="#096262"/>
<path opacity="0.1" d="M403.777 300.892L409.436 302.169C409.436 302.169 423.888 322.947 425.02 324.109C426.151 325.271 419.63 329.495 416.943 329.495C414.256 329.495 401.082 331.034 397.255 334.589C393.428 338.145 395.022 320.253 395.022 319.845C395.022 319.438 399.773 308.149 399.773 308.149L403.777 300.892Z" fill="black"/>
<path d="M403.777 300.045L409.436 301.315C409.436 301.315 423.888 322.131 425.02 323.262C426.151 324.393 419.63 328.649 416.943 328.649C414.256 328.649 401.082 330.188 397.255 333.743C393.428 337.298 395.022 319.407 395.022 318.999C395.022 318.591 399.804 307.264 399.804 307.264L403.777 300.045Z" fill="#096262"/>
<g opacity="0.1">
<path opacity="0.1" d="M365.679 220.754C365.646 220.164 365.659 219.572 365.718 218.984C364.546 220.742 363.739 222.718 363.347 224.794V226.579C363.347 226.579 363.347 226.54 363.347 226.517V226.941C363.347 228.187 363.347 229.442 363.308 230.688H363.2V231.265C363.2 231.065 363.2 230.873 363.162 230.673C361.622 230.427 360.521 229.134 359.374 228.103C358.226 227.071 356.432 226.086 355.031 226.879C354.36 227.334 353.827 227.965 353.491 228.703L351.204 232.735C351.194 232.311 351.094 231.894 350.909 231.511C350.725 231.129 350.46 230.791 350.134 230.519C348.049 231.431 346.281 232.942 345.057 234.86C343.833 236.779 343.207 239.017 343.259 241.292C341.155 239.975 339.395 238.176 338.125 236.045C336.854 233.913 336.109 231.51 335.952 229.034C335.818 231.799 336.425 234.549 337.709 237.001C338.993 239.454 340.909 241.52 343.259 242.985C343.209 240.711 343.836 238.473 345.06 236.555C346.284 234.637 348.05 233.126 350.134 232.212C350.46 232.486 350.723 232.826 350.908 233.209C351.092 233.592 351.193 234.011 351.204 234.436L353.468 230.403C353.804 229.666 354.337 229.035 355.008 228.58C356.409 227.81 358.157 228.718 359.351 229.803C360.544 230.888 361.707 232.235 363.308 232.412C363.308 230.442 363.329 228.477 363.37 226.517C363.747 224.461 364.533 222.502 365.679 220.754Z" fill="black"/>
<path opacity="0.1" d="M363.077 228.503C363.116 227.979 363.177 227.456 363.254 226.964L363.339 224.84C363.107 226.046 363.02 227.276 363.077 228.503Z" fill="black"/>
<path opacity="0.1" d="M386.437 237.683C384.335 238.807 381.656 237.868 379.87 236.298C378.083 234.728 376.874 232.612 375.296 230.827C375.179 231.15 375.163 231.501 375.25 231.833C375.336 232.165 375.522 232.464 375.781 232.689C375.627 232.689 375.481 232.612 375.335 232.574C376.874 234.343 378.099 236.421 379.87 237.96C381.64 239.499 384.335 240.469 386.437 239.345C388.539 238.222 389.14 235.59 388.955 233.028C388.816 235.044 388.093 236.791 386.437 237.683Z" fill="black"/>
<path opacity="0.1" d="M375.288 232.558C372.714 231.857 370.415 230.386 368.7 228.342C366.985 226.298 365.937 223.779 365.695 221.123C365.256 227.164 369.814 233.22 375.781 234.382C375.527 234.161 375.344 233.87 375.257 233.545C375.169 233.22 375.18 232.877 375.288 232.558Z" fill="black"/>
</g>
<path d="M745.049 358.329C745.049 358.329 742.015 357.906 742.015 353.497C742.015 349.087 739.844 340.83 739.844 340.83C739.844 340.83 737.965 326.463 735.37 324.185C732.776 321.908 729.442 308.533 729.442 308.533C729.442 308.533 728.872 301.277 727.709 299.715C726.547 298.152 724.976 294.328 722.659 288.872C720.341 283.416 710.701 279.676 710.701 279.676C710.701 279.676 693.231 269.549 688.28 266.248C687.828 265.974 687.404 265.655 687.018 265.294C686.155 264.17 682.398 264.147 682.398 264.147C682.005 261.662 681.628 258.814 681.505 256.236C681.505 255.959 681.505 255.682 681.505 255.405C687.025 252.144 691.183 247.002 693.216 240.923C693.308 240.63 693.385 240.33 693.47 240.03C693.808 239.926 694.12 239.751 694.385 239.518C694.65 239.285 694.863 238.998 695.01 238.676C695.449 237.683 695.464 236.529 696.018 235.598C696.665 234.505 697.897 233.92 698.867 233.105C701.316 231.019 701.947 227.518 701.831 224.34C701.754 221.754 701.339 219.153 701.5 216.591C701.5 216.375 701.5 216.16 701.546 215.944C701.593 215.567 701.647 215.175 701.716 214.805C702.093 212.897 702.917 211.096 703.379 209.203C703.841 207.31 703.887 205.178 702.809 203.547C701.231 201.154 697.943 200.677 695.056 200.469C691.784 200.192 688.896 200.546 686.763 197.83C685.785 196.411 684.682 195.082 683.468 193.859C683.037 193.459 678.848 190.896 678.848 190.734C674.75 188.83 670.101 188.472 665.759 189.726C663.58 190.357 661.54 191.389 659.33 191.904C654.587 193.028 649.121 191.812 645.086 194.528C642.838 196.067 641.49 198.522 640.228 200.9C639.201 202.86 638.159 204.822 637.102 206.787C635.392 210.011 633.668 213.289 632.952 216.86C632.802 217.64 632.707 218.429 632.667 219.222C632.667 219.507 632.667 219.792 632.667 220.076C632.667 220.2 632.667 220.323 632.667 220.446C632.667 220.707 632.667 220.969 632.713 221.215C632.759 221.462 632.713 221.531 632.767 221.692C632.821 221.854 632.836 222.216 632.882 222.462C632.929 222.708 633.021 223.147 633.113 223.478C633.113 223.624 633.206 223.762 633.252 223.909C633.298 224.055 633.421 224.424 633.522 224.678C633.622 224.932 633.629 224.948 633.691 225.078C633.806 225.348 633.945 225.609 634.084 225.848C634.145 225.948 634.191 226.048 634.253 226.148C634.464 226.508 634.701 226.853 634.961 227.179C636.601 229.234 639.034 230.542 640.828 232.466C640.828 232.543 640.828 232.62 640.828 232.697C640.828 232.904 640.828 233.112 640.828 233.328C640.938 237.619 642.095 241.818 644.2 245.56C646.304 249.301 649.291 252.473 652.901 254.797C652.901 255.09 652.94 255.39 652.955 255.69C653.105 257.972 653.077 260.262 652.87 262.539C652.556 262.171 652.163 261.877 651.721 261.68C651.279 261.483 650.798 261.387 650.314 261.4C649.983 261.384 649.652 261.412 649.329 261.485L649.259 261.431V261.5C647.565 261.916 645.479 263.678 643.485 268.687C643.485 268.687 637.417 275.521 632.798 275.236C628.178 274.951 616.483 282.354 616.483 282.354C616.483 282.354 605.072 289.749 602.624 297.291C601.255 301.568 599.611 305.753 597.704 309.818L583.56 338.845L580.965 361.931C580.965 361.931 582.405 372.173 582.12 373.743C581.835 375.313 588.041 389.395 588.041 389.395C588.041 389.395 608.544 425.393 616.921 427.24L617.522 426.825C617.882 427.006 618.262 427.146 618.654 427.24L620.379 426.032C620.485 427.385 620.439 428.745 620.24 430.088C619.093 433.65 620.679 456.844 622.696 461.392C624.713 465.94 623.997 525.578 623.997 525.578L623.712 530.834C623.712 530.834 623.712 531.003 623.782 531.295L623.712 532.542L623.92 532.65C624.136 534.322 624.066 536.019 623.712 537.667C622.989 539.976 622.696 546.494 622.696 546.494C622.696 546.494 616.921 583.338 619.662 590.741C622.403 598.144 624.721 606.255 624.721 606.255C624.721 606.255 627.608 615.489 624.86 617.028C622.111 618.567 614.327 621.299 615.913 625.139C617.376 628.694 622.927 638.221 623.751 639.614L623.682 640.383L622.55 652.642C622.733 654.26 623.172 655.84 623.851 657.321C625.091 659.999 627.493 662.761 632.082 662.461C632.852 662.407 633.737 662.322 634.607 662.207C642.992 661.076 653.309 657.336 653.309 657.336C652.774 656.997 652.285 656.591 651.854 656.128C651.442 655.729 651.115 655.25 650.894 654.721C650.673 654.192 650.562 653.623 650.568 653.05C650.691 650.81 646.511 640.183 645.463 637.559L645.225 636.974C645.225 636.974 654.757 627.009 653.171 618.19C653.171 618.19 642.622 612.034 646.095 608.648C649.567 605.262 655.773 595.566 655.773 595.566C655.773 595.566 656.058 559.283 655.773 553.873C655.476 550.111 655.655 546.326 656.304 542.607C656.42 542.053 656.558 541.507 656.705 540.961C661.511 541.686 666.365 542.053 671.226 542.061C673.002 542.061 674.798 542.025 676.616 541.953C676.616 542.466 676.639 543.02 676.685 543.616C677.085 552.604 677.832 568.371 678.44 574.227C679.303 582.615 684.069 605.247 684.069 605.247C684.069 605.247 674.976 611.072 685.655 625.455C685.655 625.455 685.655 630.657 684.946 631.418C684.19 633.886 683.58 636.397 683.122 638.937C682.675 641.638 682.49 644.385 683.214 645.801C684.946 649.202 695.341 648.925 695.341 648.925C695.424 648.906 695.509 648.893 695.595 648.887C697.557 648.679 699.54 648.865 701.43 649.433C703.319 650.001 705.076 650.941 706.597 652.196C710.547 655.366 725.53 653.981 733.653 652.965C736.833 652.557 738.958 652.196 738.958 652.196C739.061 651.836 739.097 651.46 739.066 651.087C738.981 649.094 737.418 644.723 726.824 640.822C726.824 640.822 716.861 634.127 716.999 628.294H716.776H715.629C716.353 628.271 716.861 628.271 716.861 628.271C716.861 628.271 712.957 614.042 714.551 612.88C716.145 611.719 711.371 595.951 711.371 595.951C711.371 595.951 708.638 569.479 708.484 567.632C708.494 566.041 708.738 564.459 709.207 562.938L708.484 548.417C708.484 548.417 708.345 543.592 708.484 542.023C708.468 540.66 708.36 539.3 708.16 537.952C708.091 537.413 708.022 536.851 707.945 536.297C711.679 535.351 714.104 534.481 714.104 534.481L713.673 483.962C716.845 477.806 717.431 464.293 717.415 454.72C717.415 448.564 717.138 444.008 717.138 444.008L721.473 436.936C721.473 436.936 722.474 428.472 720.888 426.617C720.187 425.778 720.503 424.909 721.08 424.193C721.384 423.944 721.706 423.718 722.043 423.516C722.005 423.462 721.971 423.406 721.942 423.346C722.245 423.094 722.567 422.865 722.905 422.662C722.905 422.662 721.365 420.276 722.743 419.268C724.037 420.145 725.192 420.846 726.069 421.346C726.008 421.907 725.946 422.231 725.946 422.231L726.316 421.461C727.163 421.938 727.679 422.231 727.679 422.231C727.679 422.231 734.469 408.71 734.323 406.725C734.177 404.739 738.943 396.336 738.943 396.336C738.943 396.336 739.52 391.919 742.123 390.072C744.725 388.225 744.14 374.843 744.14 374.843C744.14 374.843 744.864 367.871 746.596 365.032C748.329 362.192 745.049 358.329 745.049 358.329ZM615.112 352.396L615.243 355.621C614.473 354.382 613.919 353.497 613.919 353.497L615.112 352.396Z" fill="url(#paint1_linear)"/>
<path d="M728.079 416.382L726.416 423.462C726.416 423.462 713.096 416.652 710.701 408.033C708.307 399.414 714.713 396.128 714.713 396.128L727.132 401.377L728.079 416.382Z" fill="white"/>
<path opacity="0.1" d="M728.079 416.382L726.416 423.462C726.416 423.462 713.096 416.652 710.701 408.033C708.307 399.414 714.713 396.128 714.713 396.128L727.132 401.377L728.079 416.382Z" fill="black"/>
<path d="M653.325 657.328C653.325 657.328 641.005 661.853 632.536 662.423C628.04 662.723 625.676 659.968 624.459 657.313C623.798 655.849 623.367 654.291 623.181 652.696L624.298 640.499L624.883 634.012L642.876 629.333L645.425 637.128L645.664 637.713C646.68 640.322 650.792 650.895 650.668 653.104C650.658 653.675 650.765 654.242 650.98 654.771C651.196 655.3 651.517 655.78 651.923 656.182C652.34 656.622 652.811 657.007 653.325 657.328Z" fill="white"/>
<path d="M737.434 651.126C737.465 651.499 737.429 651.874 737.326 652.234C737.326 652.234 710.978 656.62 705.589 652.234C704.074 650.953 702.308 650.001 700.404 649.441C698.5 648.88 696.5 648.723 694.532 648.979C694.532 648.979 684.338 649.256 682.636 645.901C681.928 644.493 682.113 641.761 682.552 639.075C683 636.549 683.596 634.051 684.338 631.595L684.746 631.272L687.171 629.325L715.567 628.487H715.783C715.644 634.289 725.415 640.945 725.415 640.945C735.817 644.793 737.349 649.14 737.434 651.126Z" fill="white"/>
<path opacity="0.1" d="M737.442 651.126C737.469 651.499 737.43 651.874 737.326 652.234C737.326 652.234 710.979 656.62 705.597 652.234C704.081 650.952 702.314 650 700.408 649.439C698.503 648.879 696.502 648.722 694.532 648.979C694.532 648.979 684.331 649.256 682.629 645.901C681.928 644.493 682.105 641.761 682.544 639.067C686.471 639.46 692.669 640.437 695.102 642.776C698.783 646.316 705.019 649.856 708.838 650.141C711.856 650.326 729.804 650.895 737.442 651.126Z" fill="black"/>
<path opacity="0.1" d="M653.325 657.328C653.325 657.328 641.005 661.853 632.536 662.423C628.039 662.723 625.676 659.968 624.459 657.313C627.601 658.367 631.951 659.467 634.238 658.459C636.948 657.251 646.557 656.482 651.946 656.151C652.353 656.601 652.816 656.997 653.325 657.328Z" fill="black"/>
<path d="M671.603 292.658C661.44 288.71 648.366 275.667 651.631 269.572C652.352 268.033 652.783 266.374 652.901 264.678C653.111 262.375 653.142 260.06 652.994 257.752C652.765 253.971 652.309 250.206 651.631 246.479C651.631 246.479 683.361 247.194 681.513 251.865C680.974 253.243 680.881 255.621 681.035 258.276C681.189 260.931 681.567 263.955 681.967 266.502C682.514 269.988 683.076 272.658 683.076 272.658C683.076 272.658 681.128 275.375 679.996 275.521C678.864 275.667 686.186 298.314 671.603 292.658Z" fill="#CF6F80"/>
<path opacity="0.1" d="M645.633 637.675L645.394 637.936C635.908 626.47 624.436 640.768 624.436 640.768L624.267 640.46L624.852 633.973L642.846 629.294L645.394 637.09L645.633 637.675Z" fill="black"/>
<path opacity="0.1" d="M715.798 629.294C715.798 629.294 708.869 629.156 705.173 632.419C701.477 635.681 683.615 633.119 684.385 632.419C684.609 632.063 684.746 631.66 684.785 631.241L687.21 629.294L715.606 628.456C715.714 628.994 715.798 629.294 715.798 629.294Z" fill="black"/>
<path d="M657.436 539.252C656.921 540.528 656.529 541.85 656.266 543.2C655.624 546.898 655.446 550.662 655.735 554.404C656.02 559.791 655.735 595.889 655.735 595.889C655.735 595.889 649.645 605.516 646.241 608.91C642.838 612.303 653.171 618.398 653.171 618.398C654.711 627.178 645.379 637.09 645.379 637.09C635.893 625.624 624.421 639.914 624.421 639.914C624.421 639.914 618.184 629.141 616.629 625.293C615.074 621.445 622.719 618.79 625.406 617.221C628.094 615.651 625.268 606.447 625.268 606.447C625.268 606.447 623.004 598.375 620.309 591.011C617.615 583.646 623.281 546.994 623.281 546.994C623.281 546.994 623.574 540.476 624.275 538.206C624.624 536.567 624.695 534.881 624.483 533.219C624.436 532.657 624.382 532.196 624.344 531.873C624.305 531.549 624.275 531.411 624.275 531.411L624.382 531.226L628.232 524.054C628.232 524.054 659.284 534.735 657.436 539.252Z" fill="#096262"/>
<path d="M715.798 628.448C715.798 628.448 708.869 628.302 705.173 631.526C701.477 634.75 683.614 632.234 684.384 631.526C685.154 630.818 685.085 625.585 685.085 625.585C674.606 611.28 683.545 605.478 683.545 605.478C683.545 605.478 678.872 582.969 678.025 574.62C677.432 568.794 676.7 553.073 676.308 544.17C676.138 540.322 676.038 537.667 676.038 537.667L684.523 535.982L685.624 535.766L706.274 531.619C706.274 531.619 706.844 535.466 707.229 538.614C707.423 539.957 707.529 541.312 707.544 542.669C707.413 544.208 707.544 549.033 707.544 549.033L708.253 563.469C707.796 564.985 707.557 566.558 707.544 568.14C707.691 569.987 710.378 596.313 710.378 596.313C710.378 596.313 715.051 612.026 713.458 613.158C711.864 614.289 715.798 628.448 715.798 628.448Z" fill="#096262"/>
<path opacity="0.1" d="M681.513 251.889C680.974 253.266 680.881 255.644 681.035 258.299C676.785 260.857 671.899 262.164 666.939 262.072C661.979 261.979 657.145 260.49 652.994 257.775C652.764 253.994 652.309 250.229 651.631 246.502C651.631 246.502 683.36 247.218 681.513 251.889Z" fill="black"/>
<path d="M693.762 234.898C693.846 241.879 691.151 248.609 686.271 253.605C681.39 258.601 674.724 261.455 667.738 261.538C660.752 261.622 654.019 258.929 649.021 254.051C644.022 249.173 641.166 242.51 641.083 235.529C641.083 235.313 641.083 235.113 641.083 234.898C641.083 227.914 643.858 221.216 648.8 216.277C653.741 211.339 660.442 208.564 667.43 208.564C674.418 208.564 681.12 211.339 686.061 216.277C691.002 221.216 693.778 227.914 693.778 234.898H693.762Z" fill="#CF6F80"/>
<path opacity="0.1" d="M671.603 292.658C661.44 288.71 648.366 275.667 651.631 269.572C652.352 268.033 652.783 266.374 652.901 264.678L666.814 276.113L675.422 283.17L681.967 266.525C682.514 270.011 683.076 272.681 683.076 272.681C683.076 272.681 681.128 275.398 679.996 275.544C678.864 275.69 686.186 298.314 671.603 292.658Z" fill="black"/>
<path d="M707.583 343.193L695.964 538.267L680.812 539.26L641.568 426.148L648.004 291.858L649.367 263.485L666.814 277.806L675.422 284.863L682.159 267.725L694.686 278.637L707.583 343.193Z" fill="#096262"/>
<path opacity="0.1" d="M657.436 539.252C656.921 540.528 656.529 541.85 656.266 543.2C645.23 541.502 634.511 538.158 624.467 533.281L624.259 533.173L624.328 531.934V531.288L628.178 524.116C628.178 524.116 659.284 534.735 657.436 539.252Z" fill="black"/>
<path opacity="0.1" d="M684.777 543.231C681.959 543.712 679.116 544.039 676.262 544.208C676.092 540.36 675.992 537.706 675.992 537.706L684.523 535.982L684.777 543.231Z" fill="black"/>
<path opacity="0.1" d="M707.26 538.614C701.785 540.037 693.324 541.638 685.763 540.638L685.655 535.766L706.305 531.619C706.305 531.619 706.852 535.435 707.26 538.614Z" fill="black"/>
<path opacity="0.1" d="M685.624 541.53C654.056 546.917 625.145 531.472 625.145 531.472L625.422 526.24C625.422 526.24 626.138 466.917 624.152 462.369C622.165 457.821 620.617 434.789 621.742 431.273C622.866 427.756 617.638 374.659 617.638 374.659L616.791 353.112L585.77 340.515L599.629 311.635C601.5 307.586 603.11 303.422 604.448 299.168C606.858 291.665 618.046 284.301 618.046 284.301C618.046 284.301 629.518 276.944 634.053 277.221C638.588 277.498 644.532 270.711 644.532 270.711C648.921 259.53 652.894 264.555 652.894 264.555C652.894 265.094 652.894 264.555 652.678 266.209C651.138 278.483 677.578 317.267 677.955 317.96L680.504 379.26L683.053 456.836L685.624 541.53Z" fill="black"/>
<path d="M684.777 541.53C653.209 546.917 624.29 531.472 624.29 531.472L624.575 526.24C624.575 526.24 625.283 466.917 623.297 462.369C621.31 457.821 619.763 434.766 620.895 431.219C622.026 427.671 616.768 374.628 616.768 374.628L615.913 353.081L584.899 340.484L598.758 311.604C600.626 307.556 602.235 303.395 603.578 299.145C605.988 291.665 617.214 284.293 617.214 284.293C617.214 284.293 628.686 276.937 633.214 277.214C637.741 277.491 643.716 270.711 643.716 270.711C648.112 259.53 652.955 264.555 652.955 264.555C652.955 265.094 652.493 265.325 652.74 266.209C656.127 278.114 676.793 317.267 677.17 317.96L679.719 379.26L682.213 456.875L684.777 541.53Z" fill="white"/>
<path opacity="0.1" d="M676.27 319.691C672.874 318.276 654.888 297.752 654.888 297.752V293.081C654.234 291.542 650.338 292.481 647.188 293.558L648.544 265.186L650.083 266.463C653.448 278.36 675.9 319.007 676.27 319.691Z" fill="black"/>
<path d="M677.124 317.998C673.721 316.575 655.735 296.059 655.735 296.059V291.381C655.08 289.842 651.192 290.78 648.035 291.858L649.367 263.516L650.907 264.786C654.303 276.667 676.747 317.306 677.124 317.998Z" fill="white"/>
<path opacity="0.1" d="M625.144 420.345C625.568 420.345 647.096 418.083 647.096 418.083C647.096 418.083 660.131 443.708 659.276 449.934C658.422 456.159 656.874 461.684 651.631 460.707C646.387 459.73 623.412 461.476 623.412 461.476L625.144 420.345Z" fill="black"/>
<path d="M624.29 418.645C624.721 418.645 646.249 416.382 646.249 416.382C646.249 416.382 659.276 442.046 658.43 448.202C657.583 454.358 656.02 459.953 650.784 458.975C645.548 457.998 622.558 459.745 622.558 459.745L624.29 418.645Z" fill="white"/>
<path d="M640.513 406.648C640.513 406.648 660.27 417.267 660.693 420.499C661.116 423.731 650.638 419.083 648.374 418.514C646.883 418.16 645.367 417.923 643.839 417.806L628.74 418.214L640.513 406.648Z" fill="#CF6F80"/>
<path opacity="0.1" d="M670.749 321.015C671.897 321.015 672.828 320.085 672.828 318.937C672.828 317.79 671.897 316.86 670.749 316.86C669.601 316.86 668.67 317.79 668.67 318.937C668.67 320.085 669.601 321.015 670.749 321.015Z" fill="black"/>
<path d="M670.749 320.169C671.897 320.169 672.828 319.238 672.828 318.091C672.828 316.943 671.897 316.013 670.749 316.013C669.601 316.013 668.67 316.943 668.67 318.091C668.67 319.238 669.601 320.169 670.749 320.169Z" fill="#3F3D56"/>
<path opacity="0.1" d="M674.575 410.957C675.724 410.957 676.654 410.027 676.654 408.879C676.654 407.732 675.724 406.802 674.575 406.802C673.427 406.802 672.497 407.732 672.497 408.879C672.497 410.027 673.427 410.957 674.575 410.957Z" fill="black"/>
<path d="M674.575 410.103C675.724 410.103 676.654 409.173 676.654 408.025C676.654 406.878 675.724 405.948 674.575 405.948C673.427 405.948 672.497 406.878 672.497 408.025C672.497 409.173 673.427 410.103 674.575 410.103Z" fill="#3F3D56"/>
<path opacity="0.1" d="M672.827 365.986C673.976 365.986 674.906 365.056 674.906 363.908C674.906 362.761 673.976 361.831 672.827 361.831C671.679 361.831 670.749 362.761 670.749 363.908C670.749 365.056 671.679 365.986 672.827 365.986Z" fill="black"/>
<path d="M672.827 365.14C673.976 365.14 674.906 364.209 674.906 363.062C674.906 361.914 673.976 360.984 672.827 360.984C671.679 360.984 670.749 361.914 670.749 363.062C670.749 364.209 671.679 365.14 672.827 365.14Z" fill="#3F3D56"/>
<path d="M720.749 417.375C720.749 417.375 722.166 419.499 720.749 420.453C719.333 421.407 720.888 423.854 720.888 423.854C720.888 423.854 717.354 425.917 718.909 427.787C720.464 429.657 719.479 438.052 719.479 438.052L715.229 445.124C715.229 445.124 715.483 449.656 715.498 455.782C715.498 465.339 714.936 478.775 711.826 484.901L712.241 535.158C712.241 535.158 697.358 540.599 684.9 538.937L683.053 458.291C683.053 458.291 685.747 412.558 686.741 403.785C687.322 399.231 687.559 394.639 687.449 390.049C687.449 390.049 687.026 376.321 685.601 369.957C685.601 369.957 684.061 342.346 683.907 334.705C683.838 331.05 684.03 320.384 684.246 310.242C684.485 299.153 684.754 288.695 684.754 288.695L681.944 266.463C681.944 266.463 684.754 266.186 685.601 267.31C685.98 267.664 686.393 267.981 686.833 268.256C691.691 271.535 708.83 281.615 708.83 281.615C708.83 281.615 718.316 285.386 720.588 290.788C722.859 296.19 724.437 300.022 725.538 301.561C726.639 303.1 727.24 310.334 727.24 310.334C727.24 310.334 730.505 323.647 733.053 325.902C735.602 328.156 737.434 342.469 737.434 342.469L714.913 360.168C714.913 360.168 712.934 389.61 712.511 390.749C712.087 391.888 720.749 417.375 720.749 417.375Z" fill="white"/>
<path d="M721.604 417.375C721.604 417.375 723.013 419.499 721.604 420.453C720.195 421.407 721.734 423.854 721.734 423.854C721.734 423.854 718.2 425.917 719.756 427.787C721.311 429.657 720.325 438.052 720.325 438.052L716.091 445.124C716.091 445.124 716.345 449.657 716.368 455.782C716.368 465.339 715.806 478.775 712.695 484.901L713.119 535.158C713.119 535.158 698.236 540.599 685.778 538.937L683.938 458.291C683.938 458.291 686.625 412.558 687.626 403.785C688.208 399.231 688.442 394.639 688.326 390.049C688.326 390.049 687.903 376.321 686.486 369.957C686.486 369.957 684.946 342.346 684.785 334.705C684.715 331.05 684.908 320.384 685.123 310.242C685.362 299.153 685.632 288.695 685.632 288.695L681.92 266.163C681.92 266.163 685.632 266.163 686.486 267.31C686.862 267.668 687.275 267.986 687.718 268.256C692.569 271.535 709.708 281.615 709.708 281.615C709.708 281.615 719.171 285.386 721.48 290.788C723.79 296.19 725.33 300.022 726.431 301.561C727.532 303.1 728.133 310.334 728.133 310.334C728.133 310.334 731.397 323.647 733.946 325.902C736.494 328.156 738.335 342.469 738.335 342.469L715.814 360.168C715.814 360.168 713.835 389.611 713.404 390.749C712.972 391.888 721.604 417.375 721.604 417.375Z" fill="white"/>
<path opacity="0.1" d="M694.632 295.228L696.673 301.154L685.963 311.927C686.201 300.838 686.471 290.38 686.471 290.38L682.76 267.856C682.76 267.856 686.471 267.856 687.326 269.003C687.701 269.361 688.114 269.679 688.557 269.949L697.658 296.182L694.632 295.228Z" fill="black"/>
<path d="M693.762 293.528L695.803 299.445L685.1 310.219C685.331 299.13 685.608 288.672 685.608 288.672L681.89 266.14C681.89 266.14 685.608 266.14 686.455 267.287C686.833 267.643 687.246 267.96 687.687 268.233L696.842 294.49L693.762 293.528Z" fill="white"/>
<path opacity="0.1" d="M693.762 234.897C693.765 237.67 693.329 240.426 692.469 243.062C692.324 243.086 692.176 243.081 692.033 243.047C691.89 243.012 691.755 242.95 691.637 242.862C691.429 235.936 688.026 229.426 683.83 223.893C682.65 222.224 681.222 220.745 679.595 219.507C677.949 218.272 675.901 217.693 673.852 217.883C671.542 218.199 669.501 219.769 667.168 219.969C664.089 220.223 661.332 218.091 658.275 217.991C657.033 218.001 655.806 218.277 654.679 218.8C653.551 219.323 652.549 220.081 651.739 221.023C650.131 222.918 648.938 225.127 648.235 227.51C647.025 231.126 646.365 234.903 646.28 238.714C646.241 240.869 646.033 243.57 644.031 244.355C644.183 242.771 644.003 241.174 643.503 239.664C643.004 238.153 642.195 236.763 641.129 235.582L641.083 235.529C641.083 235.313 641.083 235.113 641.083 234.897C641.083 227.914 643.858 221.216 648.8 216.277C653.741 211.339 660.442 208.564 667.43 208.564C674.418 208.564 681.12 211.339 686.061 216.277C691.002 221.216 693.778 227.914 693.778 234.897H693.762Z" fill="black"/>
<path d="M678.363 193.089C674.362 191.208 669.812 190.852 665.567 192.089C663.434 192.72 661.425 193.743 659.261 194.259C654.641 195.375 649.252 194.167 645.286 196.868C643.084 198.407 641.76 200.838 640.528 203.208L637.448 209.065C635.77 212.273 634.076 215.536 633.375 219.068C632.675 222.601 633.098 226.556 635.339 229.403C636.963 231.465 639.381 232.766 641.152 234.713C642.216 235.9 643.022 237.294 643.52 238.808C644.019 240.322 644.198 241.922 644.047 243.508C646.049 242.739 646.249 240.023 646.295 237.868C646.381 234.056 647.041 230.279 648.251 226.664C648.953 224.281 650.147 222.071 651.754 220.177C652.564 219.233 653.566 218.474 654.693 217.95C655.821 217.426 657.047 217.149 658.291 217.137C661.371 217.245 664.135 219.376 667.184 219.115C669.494 218.922 671.542 217.352 673.867 217.037C675.917 216.843 677.966 217.422 679.611 218.661C681.238 219.895 682.665 221.375 683.838 223.047C688.042 228.587 691.453 235.067 691.653 242.016C692.523 242.647 693.778 241.816 694.209 240.831C694.64 239.846 694.655 238.691 695.202 237.752C695.834 236.667 697.042 236.083 697.989 235.267C700.392 233.197 700.992 229.711 700.9 226.548C700.807 223.385 700.191 220.177 700.792 217.068C701.154 215.167 701.97 213.374 702.417 211.489C702.863 209.603 702.917 207.487 701.862 205.863C700.322 203.486 697.081 203.008 694.255 202.785C691.044 202.508 688.173 202.862 686.124 200.161C685.161 198.753 684.079 197.43 682.891 196.206C682.467 195.798 678.363 193.259 678.363 193.089Z" fill="#512E4E"/>
<path opacity="0.1" d="M594.655 355.367L586.616 340.507L584.068 363.439C584.068 363.439 585.485 373.627 585.2 375.19C584.915 376.752 591.005 390.757 591.005 390.757C591.005 390.757 611.124 426.578 619.339 428.418L647.057 408.595L639.697 399.253C639.697 399.253 637.148 398.26 636.509 399.253C636.509 399.253 622.835 375.751 621.426 374.058C620.017 372.365 620.286 368.956 620.286 368.956C620.286 368.956 618.161 366.694 618.869 364.57C619.578 362.446 614.804 355.09 614.804 355.09L619.193 350.988L594.655 355.367Z" fill="black"/>
<path d="M587.04 338.806L584.915 340.507L582.366 363.439C582.366 363.439 583.783 373.627 583.498 375.19C583.213 376.752 589.311 390.757 589.311 390.757C589.311 390.757 609.422 426.578 617.638 428.418L645.402 408.595L638.034 399.253C638.034 399.253 635.485 398.26 634.846 399.253C634.846 399.253 621.179 375.751 619.763 374.058C618.346 372.365 618.631 368.956 618.631 368.956C618.631 368.956 616.506 366.694 617.214 364.57C617.922 362.446 613.103 355.09 613.103 355.09L617.491 350.988L587.04 338.806Z" fill="white"/>
<path opacity="0.1" d="M718.909 428.672C720.449 430.542 719.479 438.945 719.479 438.945L715.228 445.97C715.228 445.97 715.482 450.511 715.498 456.636L708.353 458.868C707.706 459.069 707.02 459.113 706.353 458.996C705.686 458.879 705.056 458.604 704.517 458.195C703.977 457.785 703.544 457.252 703.252 456.641C702.96 456.03 702.819 455.358 702.84 454.682L704.08 414.974L720.749 421.338C719.332 422.323 720.888 424.739 720.888 424.739C720.888 424.739 717.353 426.802 718.909 428.672Z" fill="black"/>
<path d="M719.756 427.825C721.296 429.687 720.325 438.091 720.325 438.091L716.091 445.124C716.091 445.124 716.345 449.656 716.368 455.782L709.092 458.052C708.46 458.25 707.79 458.294 707.138 458.18C706.485 458.067 705.87 457.799 705.342 457.399C704.815 456.999 704.39 456.478 704.105 455.881C703.82 455.284 703.682 454.627 703.702 453.966L704.942 414.12L721.604 420.499C720.179 421.484 721.734 423.9 721.734 423.9C721.734 423.9 718.2 425.955 719.756 427.825Z" fill="white"/>
<path d="M725.284 408.879C725.284 408.879 724.152 416.105 721.319 416.529C718.486 416.952 717.215 428.218 714.389 427.825C711.564 427.433 713.435 417.344 713.535 415.39C713.635 413.435 710.455 405.34 712.826 403.5C715.198 401.661 722.743 403.5 722.743 403.5L725.284 408.879Z" fill="#CF6F80"/>
<path opacity="0.1" d="M731.274 353.243L736.61 342.469C736.61 342.469 738.743 350.68 738.743 355.067C738.743 359.453 741.715 359.884 741.715 359.884C741.715 359.884 744.972 363.731 743.255 366.54C741.538 369.349 740.852 376.305 740.852 376.305C740.852 376.305 741.415 389.61 738.866 391.45C736.317 393.289 735.748 397.683 735.748 397.683C735.748 397.683 731.074 406.032 731.22 408.018C731.367 410.003 724.707 423.447 724.707 423.447C724.707 423.447 727.964 406.74 708.984 399.522C708.984 399.522 708.838 393.858 710.255 392.304C711.671 390.749 713.881 389.995 712.495 382.177C711.109 374.359 712.095 364.932 712.095 363.046C712.095 361.161 716.345 349.41 716.345 349.41L731.274 353.243Z" fill="black"/>
<path d="M733.646 340.93L738.312 342.469C738.312 342.469 740.444 350.68 740.444 355.066C740.444 359.453 743.416 359.884 743.416 359.884C743.416 359.884 746.673 363.731 744.956 366.54C743.239 369.349 742.546 376.305 742.546 376.305C742.546 376.305 743.116 389.61 740.568 391.45C738.019 393.289 737.488 397.683 737.488 397.683C737.488 397.683 732.814 406.032 732.96 408.018C733.107 410.003 726.439 423.447 726.439 423.447C726.439 423.447 729.696 406.74 710.717 399.522C710.717 399.522 710.578 393.858 711.995 392.304C713.411 390.749 715.621 389.995 714.235 382.177C712.849 374.358 713.835 364.932 713.835 363.046C713.835 361.161 718.085 349.41 718.085 349.41L733.646 340.93Z" fill="white"/>
<path opacity="0.1" d="M630.565 620.168C630.565 620.168 638.003 615.497 642.884 618.89C647.766 622.284 630.565 620.168 630.565 620.168Z" fill="black"/>
<path opacity="0.1" d="M688.373 605.724C688.373 605.724 694.956 604.877 700.484 610.826C706.013 616.774 688.373 605.724 688.373 605.724Z" fill="black"/>
<g opacity="0.1">
<path opacity="0.1" d="M697.99 233.574C697.043 234.397 695.826 234.974 695.195 236.06C694.656 236.991 694.64 238.145 694.209 239.138C693.778 240.13 692.523 240.954 691.645 240.323C691.445 233.397 688.034 226.894 683.838 221.354C682.665 219.684 681.239 218.207 679.611 216.975C677.964 215.734 675.913 215.152 673.859 215.344C671.55 215.659 669.517 217.229 667.184 217.429C664.104 217.683 661.34 215.552 658.283 215.452C657.041 215.461 655.816 215.737 654.69 216.26C653.563 216.783 652.562 217.541 651.754 218.484C650.147 220.378 648.954 222.588 648.251 224.971C647.041 228.586 646.382 232.363 646.295 236.175C646.249 238.322 646.049 241 644.062 241.8C644.109 242.371 644.109 242.945 644.062 243.516C646.072 242.747 646.272 240.03 646.318 237.876C646.405 234.064 647.064 230.287 648.274 226.671C648.977 224.289 650.17 222.079 651.777 220.184C652.586 219.242 653.587 218.483 654.713 217.959C655.839 217.435 657.064 217.157 658.307 217.145C661.386 217.252 664.158 219.384 667.207 219.122C669.517 218.93 671.565 217.36 673.883 217.045C675.935 216.851 677.986 217.43 679.634 218.668C681.262 219.903 682.688 221.382 683.861 223.055C688.057 228.595 691.468 235.075 691.668 242.023C692.546 242.654 693.801 241.823 694.232 240.838C694.663 239.853 694.679 238.699 695.218 237.76C695.849 236.675 697.066 236.09 698.013 235.275C700.415 233.205 701.016 229.719 700.923 226.556C700.923 226.456 700.923 226.363 700.923 226.263C700.769 229.018 700.038 231.812 697.99 233.574Z" fill="black"/>
<path opacity="0.1" d="M641.144 233.035C639.381 231.088 636.963 229.78 635.339 227.718C633.966 225.897 633.185 223.701 633.098 221.423C632.856 224.271 633.652 227.11 635.339 229.419C636.963 231.481 639.381 232.781 641.144 234.728C642.847 236.632 643.871 239.046 644.055 241.592C644.17 240.044 643.972 238.488 643.472 237.017C642.972 235.547 642.18 234.193 641.144 233.035Z" fill="black"/>
<path opacity="0.1" d="M702.416 209.796C701.962 211.681 701.154 213.474 700.784 215.375C700.562 216.66 700.482 217.966 700.545 219.268C700.571 218.533 700.651 217.799 700.784 217.075C701.154 215.175 701.962 213.382 702.416 211.496C702.677 210.456 702.763 209.379 702.67 208.31C702.621 208.811 702.536 209.307 702.416 209.796Z" fill="black"/>
</g>
<path opacity="0.1" d="M102.195 645.539C143.63 645.539 177.219 640.147 177.219 633.496C177.219 626.845 143.63 621.453 102.195 621.453C60.7607 621.453 27.1714 626.845 27.1714 633.496C27.1714 640.147 60.7607 645.539 102.195 645.539Z" fill="#13DEDE"/>
<path d="M104.613 402.785H99.7854V511.419H104.613V402.785Z" fill="#535461"/>
<path d="M134.957 511.095L134.649 515.99L134.225 522.915L134.048 525.793L133.617 532.719L133.432 535.597L133.009 542.523L128.135 621.068C127.927 624.448 126.437 627.621 123.969 629.94C121.501 632.259 118.241 633.55 114.853 633.55H89.5452C86.1482 633.551 82.8794 632.254 80.4096 629.922C77.9398 627.591 76.4563 624.404 76.2636 621.014L71.3898 542.469L70.9663 535.543L70.7892 532.665L70.3503 525.739L70.1733 522.861L69.7498 515.936L69.4418 511.042C69.3885 510.103 69.5268 509.164 69.8482 508.281C70.1696 507.398 70.6674 506.59 71.3113 505.905C71.9552 505.221 72.7318 504.674 73.5938 504.299C74.4557 503.924 75.385 503.728 76.3252 503.723H128.081C129.025 503.729 129.959 503.927 130.824 504.306C131.688 504.685 132.467 505.236 133.11 505.927C133.754 506.617 134.25 507.432 134.568 508.32C134.885 509.209 135.018 510.154 134.957 511.095Z" fill="#3F3D56"/>
<path d="M134.649 515.982L134.217 522.892H70.1731L69.7419 515.982H134.649Z" fill="#9D9CB5"/>
<path d="M134.04 525.77L133.617 532.681H70.7813L70.3501 525.77H134.04Z" fill="#9D9CB5"/>
<path d="M133.432 535.566L133.009 542.469H71.3897L70.9585 535.566H133.432Z" fill="#9D9CB5"/>
<path d="M62.4043 443.508C90.5228 463.839 102.234 495.636 102.234 495.636C102.234 495.636 68.356 494.474 40.2297 474.143C12.1035 453.812 0.377197 422.038 0.377197 422.038C0.377197 422.038 34.2549 423.177 62.4043 443.508Z" fill="#096262"/>
<path d="M0.377197 422.038C0.377197 422.038 35.5408 441.546 46.8205 457.698C58.1003 473.85 102.203 495.651 102.203 495.651" stroke="#535461" stroke-width="2" stroke-miterlimit="10"/>
<path d="M80.5213 402.554C95.8279 413.612 102.203 430.919 102.203 430.919C102.203 430.919 83.7243 430.288 68.4562 419.229C53.1881 408.171 46.7744 390.857 46.7744 390.857C46.7744 390.857 65.2224 391.488 80.5213 402.554Z" fill="#096262"/>
<path d="M46.7744 390.857C46.7744 390.857 65.9153 401.477 72.0595 410.265C78.2037 419.053 102.203 430.919 102.203 430.919" stroke="#535461" stroke-width="2" stroke-miterlimit="10"/>
<path d="M124.439 430.041C106.861 449.349 103.142 474.581 103.142 474.581C103.142 474.581 127.927 468.502 145.49 449.187C163.052 429.872 166.786 404.647 166.786 404.647C166.786 404.647 142.017 410.734 124.439 430.041Z" fill="#096262"/>
<path d="M166.802 404.655C166.802 404.655 143.903 424.447 138.083 438.083C132.262 451.719 103.142 474.581 103.142 474.581" stroke="#535461" stroke-width="2" stroke-miterlimit="10"/>
</g>
<defs>
<linearGradient id="paint0_linear" x1="358.434" y1="642.984" x2="358.434" y2="198.468" gradientUnits="userSpaceOnUse">
<stop stop-color="#808080" stop-opacity="0.25"/>
<stop offset="0.54" stop-color="#808080" stop-opacity="0.12"/>
<stop offset="1" stop-color="#808080" stop-opacity="0.1"/>
</linearGradient>
<linearGradient id="paint1_linear" x1="146505" y1="416583" x2="146505" y2="125224" gradientUnits="userSpaceOnUse">
<stop stop-color="#808080" stop-opacity="0.25"/>
<stop offset="0.54" stop-color="#808080" stop-opacity="0.12"/>
<stop offset="1" stop-color="#808080" stop-opacity="0.1"/>
</linearGradient>
<clipPath id="clip0">
<rect width="899" height="664" fill="white"/>
</clipPath>
</defs>
</svg>
