<svg width="185" height="76" viewBox="0 0 185 76" fill="none" xmlns="http://www.w3.org/2000/svg">
<path d="M18.0593 30.6584V37.9388C18.0593 37.9388 17.0444 64.332 35.0175 64.1961C52.9907 64.0602 50.4265 37.9388 50.4265 37.9388V26.1253C50.4265 26.1253 49.3517 21.4667 55.1983 21.2248C61.045 20.9829 64.7885 21.2248 64.7885 21.2248" stroke="#096262" stroke-width="4"/>
<path d="M10.2044 3.97851C10.2044 3.97851 0.650921 2.29757 2.16208 13.146C3.67323 23.9943 7.68862 32.7411 13.2276 32.1628C18.7665 31.5845 22.4645 32.1628 22.4645 32.1628C22.4645 32.1628 31.0759 34.0898 34.0143 13.146C35.075 5.58511 32.8171 5.27596 32.6397 5.00537C30.1411 2.87168 26.2299 3.97851 26.2299 3.97851" stroke="#096262" stroke-width="4"/>
<path d="M9.11416 7.60224C10.5137 7.60224 11.6482 5.90042 11.6482 3.80112C11.6482 1.70182 10.5137 0 9.11416 0C7.71462 0 6.58008 1.70182 6.58008 3.80112C6.58008 5.90042 7.71462 7.60224 9.11416 7.60224Z" fill="#096262"/>
<path d="M25.7265 7.60224C27.126 7.60224 28.2605 5.90042 28.2605 3.80112C28.2605 1.70182 27.126 0 25.7265 0C24.3269 0 23.1924 1.70182 23.1924 3.80112C23.1924 5.90042 24.3269 7.60224 25.7265 7.60224Z" fill="#096262"/>
<path d="M90.7678 6.61682C90.7678 6.07256 90.3266 5.63135 89.7823 5.63135C89.2381 5.63135 88.7969 6.07256 88.7969 6.61682V9.99559C88.7969 10.5399 89.2381 10.9811 89.7823 10.9811C90.3266 10.9811 90.7678 10.5399 90.7678 9.99559V6.61682Z" fill="white"/>
<path d="M67.924 15.3848C67.924 15.3848 63.9545 10.0231 61.0212 13.6451C55.9069 16.7096 67.924 27.0301 67.924 27.0301C67.924 27.0301 77.8621 19.1992 75.0057 14.4752C72.1492 9.75126 67.924 15.3848 67.924 15.3848Z" fill="#096262"/>
<path d="M54.9678 12.1072L67.6382 5.06812L80.3086 12.1072" stroke="#096262" stroke-width="4" stroke-linecap="round"/>
<path d="M64.792 66.256C62.04 66.256 59.8853 65.5093 58.328 64.016C56.7707 62.5227 55.992 60.4853 55.992 57.904C55.992 56.1973 56.3653 54.6933 57.112 53.392C57.88 52.0907 58.9467 51.088 60.312 50.384C61.6773 49.6587 63.256 49.296 65.048 49.296C66.2427 49.296 67.416 49.4773 68.568 49.84C69.72 50.1813 70.6373 50.6507 71.32 51.248L69.848 55.248C69.272 54.7787 68.6 54.4053 67.832 54.128C67.064 53.8507 66.328 53.712 65.624 53.712C64.4293 53.712 63.512 54.0533 62.872 54.736C62.232 55.4187 61.912 56.432 61.912 57.776C61.912 59.1413 62.232 60.176 62.872 60.88C63.512 61.5627 64.44 61.904 65.656 61.904C66.36 61.904 67.0853 61.7653 67.832 61.488C68.6 61.2107 69.272 60.8373 69.848 60.368L71.32 64.304C70.616 64.9227 69.6773 65.4027 68.504 65.744C67.352 66.0853 66.1147 66.256 64.792 66.256ZM72.8768 42.448H78.6688V66H72.8768V42.448ZM81.8068 49.744H87.5988V66H81.8068V49.744ZM87.6948 41.776V46.992H81.6468V41.776H87.6948ZM101.617 49.296C103.537 49.296 104.966 49.8827 105.905 51.056C106.865 52.208 107.345 53.9573 107.345 56.304V66H101.553V56.56C101.553 55.5573 101.382 54.8427 101.041 54.416C100.699 53.968 100.166 53.744 99.4408 53.744C98.5661 53.744 97.8621 54.0427 97.3288 54.64C96.7954 55.216 96.5288 55.984 96.5288 56.944V66H90.7368V54.416C90.7368 52.6667 90.6514 51.1093 90.4808 49.744H95.9208L96.2088 52.144C96.8274 51.2267 97.5954 50.5227 98.5128 50.032C99.4301 49.5413 100.465 49.296 101.617 49.296ZM110.386 49.744H116.178V66H110.386V49.744ZM116.274 41.776V46.992H110.226V41.776H116.274ZM127.38 66.256C124.628 66.256 122.473 65.5093 120.916 64.016C119.358 62.5227 118.58 60.4853 118.58 57.904C118.58 56.1973 118.953 54.6933 119.7 53.392C120.468 52.0907 121.534 51.088 122.9 50.384C124.265 49.6587 125.844 49.296 127.636 49.296C128.83 49.296 130.004 49.4773 131.156 49.84C132.308 50.1813 133.225 50.6507 133.908 51.248L132.436 55.248C131.86 54.7787 131.188 54.4053 130.42 54.128C129.652 53.8507 128.916 53.712 128.212 53.712C127.017 53.712 126.1 54.0533 125.46 54.736C124.82 55.4187 124.5 56.432 124.5 57.776C124.5 59.1413 124.82 60.176 125.46 60.88C126.1 61.5627 127.028 61.904 128.244 61.904C128.948 61.904 129.673 61.7653 130.42 61.488C131.188 61.2107 131.86 60.8373 132.436 60.368L133.908 64.304C133.204 64.9227 132.265 65.4027 131.092 65.744C129.94 66.0853 128.702 66.256 127.38 66.256Z" fill="#096262"/>
<path d="M142.408 66.224C140.979 66.224 139.72 65.8933 138.632 65.232C137.566 64.5493 136.734 63.5893 136.136 62.352C135.56 61.0933 135.272 59.6213 135.272 57.936C135.272 56.2507 135.571 54.7787 136.168 53.52C136.766 52.2613 137.598 51.28 138.664 50.576C139.752 49.872 141 49.52 142.408 49.52C143.88 49.52 145.128 49.8827 146.152 50.608C147.176 51.3333 147.87 52.368 148.232 53.712L147.848 53.968V49.904H150.408V66H147.848V61.84L148.232 62.032C147.87 63.376 147.176 64.4107 146.152 65.136C145.128 65.8613 143.88 66.224 142.408 66.224ZM142.92 64.08C144.499 64.08 145.715 63.5467 146.568 62.48C147.422 61.392 147.848 59.856 147.848 57.872C147.848 55.888 147.411 54.3627 146.536 53.296C145.683 52.2293 144.478 51.696 142.92 51.696C141.342 51.696 140.104 52.2507 139.208 53.36C138.334 54.448 137.896 55.9733 137.896 57.936C137.896 59.8987 138.334 61.4133 139.208 62.48C140.104 63.5467 141.342 64.08 142.92 64.08ZM155.1 66V42.448H157.692V66H155.1ZM162.405 66V42.448H164.997V66H162.405Z" fill="#5B5B5B"/>
<path d="M77 12.5C77 11.6716 77.6716 11 78.5 11C79.3284 11 80 11.6716 80 12.5V26.5C80 27.3284 79.3284 28 78.5 28C77.6716 28 77 27.3284 77 26.5V12.5Z" fill="#096262"/>
</svg>
